<svg width="36" height="36" viewBox="0 0 36 36" fill="none" xmlns="http://www.w3.org/2000/svg">
<g clip-path="url(#clip0)">
<path d="M2 12.8141L2.39181 12.6297L2.76056 12.4453V12.8141V13.2059L2.39181 12.9984L2 12.8141Z" fill="#FDCF33"/>
<path d="M3.52109 12.8371L3.15233 13.0215L2.76053 13.2059V12.8141V12.4453L3.15233 12.6297L3.52109 12.8371Z" fill="#FDCF33"/>
<path d="M2.78365 12.0537L2.96803 12.4455L3.15241 12.8143H2.7606H2.39185L2.57622 12.4225L2.78365 12.0537Z" fill="#FDCF33"/>
<path d="M2.7606 13.575L2.57622 13.2063L2.39185 12.8145H2.7606H3.15241L2.94498 13.2063L2.7606 13.575Z" fill="#FDCF33"/>
<path d="M31.5468 12.2838L31.9386 12.0994L32.3073 11.915V12.2838V12.6756L31.9155 12.4682L31.5468 12.2838Z" fill="#7E6CD2"/>
<path d="M33.0679 12.3068L32.6991 12.4912L32.3073 12.6756V12.2838V11.915L32.6991 12.0994L33.0679 12.3068Z" fill="#7E6CD2"/>
<path d="M32.3304 11.5234L32.4917 11.9152L32.6761 12.3071L32.3074 12.284H31.9386L32.123 11.9152L32.3304 11.5234Z" fill="#7E6CD2"/>
<path d="M32.3074 13.0678L32.123 12.676L31.9386 12.2842H32.3074H32.6761L32.4917 12.676L32.3074 13.0678Z" fill="#7E6CD2"/>
<path d="M11.0346 4.01036L11.4264 3.82598L11.7952 3.6416V4.01036V4.40217L11.4034 4.19474L11.0346 4.01036Z" fill="#7E6CD2"/>
<path d="M12.5557 4.03341L12.1869 4.21779L11.7951 4.40217V4.01036V3.6416L12.1869 3.82598L12.5557 4.03341Z" fill="#7E6CD2"/>
<path d="M11.7952 3.25L11.9796 3.64181L12.164 4.01056H11.7952H11.4265L11.6108 3.64181L11.7952 3.25Z" fill="#7E6CD2"/>
<path d="M11.7952 4.77131L11.6108 4.40255L11.4265 4.01074H11.7952H12.164L11.9796 4.40255L11.7952 4.77131Z" fill="#7E6CD2"/>
<path d="M14.653 7.62852L14.9065 7.51328L15.1831 7.375V7.62852V7.88204L14.9065 7.76681L14.653 7.62852Z" fill="#7E6CD2"/>
<path d="M15.7131 7.65157L15.4366 7.76681L15.183 7.88204V7.62852V7.375L15.4366 7.51328L15.7131 7.65157Z" fill="#7E6CD2"/>
<path d="M15.1831 7.09863L15.2983 7.3752L15.4366 7.62872H15.1831H14.9065L15.0448 7.3752L15.1831 7.09863Z" fill="#7E6CD2"/>
<path d="M15.1601 8.159L15.0448 7.90547L14.9065 7.62891H15.1831H15.4366L15.2983 7.90547L15.1601 8.159Z" fill="#7E6CD2"/>
<path d="M26.0614 0.76036L26.4302 0.575981L26.822 0.391602V0.76036V1.15217L26.4302 0.944739L26.0614 0.76036Z" fill="#5D43B8"/>
<path d="M27.5825 0.783407L27.1907 0.967786L26.822 1.15217V0.76036V0.391602L27.1907 0.575981L27.5825 0.783407Z" fill="#5D43B8"/>
<path d="M26.822 0L27.0064 0.391805L27.1908 0.760563H26.822H26.4302L26.6376 0.391805L26.822 0Z" fill="#5D43B8"/>
<path d="M26.799 1.52131L26.6146 1.15255L26.4302 0.760742H26.822H27.1908L27.0064 1.15255L26.799 1.52131Z" fill="#5D43B8"/>
<path d="M23.7107 3.29564C22.8349 2.14328 21.0372 2.02804 19.7004 3.04212L19.3547 3.31869L18.9859 3.57221C17.6261 4.5402 17.2113 6.2918 18.064 7.46722C18.0871 7.49027 18.1101 7.53636 18.1332 7.55941C18.9629 8.64263 20.484 8.9192 21.7516 8.0895C21.913 7.99731 22.0282 7.85902 22.1434 7.72074C22.2126 7.6055 22.3048 7.51331 22.42 7.42112C22.5352 7.35198 22.6505 7.28284 22.7657 7.23674C22.927 7.19065 23.0884 7.09846 23.2267 6.98322C24.379 5.99219 24.5865 4.47106 23.7798 3.36479C23.7567 3.36479 23.7337 3.31869 23.7107 3.29564Z" fill="#DE1F25"/>
<path d="M23.7106 3.29571C23.2266 2.65038 22.443 2.32772 21.6133 2.35076C22.1434 2.48905 22.6274 2.81171 22.9731 3.24961C22.9961 3.27266 23.0192 3.31875 23.0422 3.3418C23.895 4.49417 23.7567 6.06139 22.6043 7.02938C22.4661 7.14462 22.3047 7.23681 22.1434 7.2829C22.0051 7.329 21.8899 7.37509 21.7746 7.46728C21.6594 7.55947 21.5672 7.65166 21.4981 7.7669C21.4059 7.90518 21.2676 8.04347 21.1293 8.13566C20.7605 8.36613 20.3457 8.50441 19.9539 8.57356C20.5301 8.61965 21.1524 8.45832 21.7285 8.11261C21.8899 8.02042 22.0051 7.88213 22.1203 7.74385C22.1895 7.62861 22.2817 7.53642 22.3969 7.44423C22.5121 7.37509 22.6274 7.30595 22.7426 7.25986C22.904 7.21376 23.0653 7.12157 23.2036 7.00633C24.3559 6.0153 24.5634 4.49417 23.7567 3.38789C23.7567 3.36485 23.7337 3.31875 23.7106 3.29571Z" fill="#C10F17"/>
<path d="M18.6403 4.12499C18.6172 4.14803 18.6403 4.17108 18.6633 4.17108C18.8247 4.12499 19.2165 4.00975 19.6774 3.66404C20.1383 3.31833 20.4149 2.92652 20.5302 2.76519C20.5532 2.74214 20.5302 2.7191 20.5071 2.74214L19.8618 3.1109C19.8157 3.13395 19.7696 3.1109 19.7696 3.08786L19.5391 2.46558C19.5161 2.39643 19.4239 2.41948 19.4008 2.48862L19.3547 3.13395C19.3547 3.18004 19.3086 3.20309 19.2626 3.20309L18.6864 3.06481C18.6172 3.04176 18.5711 3.13395 18.6172 3.18004L19.0782 3.61794C19.1012 3.64099 19.1012 3.68709 19.0782 3.71013L18.6403 4.12499Z" fill="#6EB172"/>
<path d="M18.4559 4.58626C18.502 4.51711 18.5942 4.58626 18.5711 4.6554C18.502 4.86283 18.4328 5.18549 18.3637 5.64644C18.2946 6.13043 18.3637 6.66052 18.4328 6.98318C18.4559 7.05233 18.3406 7.09842 18.3176 7.02928C18.041 6.54528 17.6723 5.57729 18.4559 4.58626Z" fill="#FB3C40"/>
<path d="M16.1511 25.3983C14.3303 26.4124 11.1267 21.872 7.85401 15.9028C4.58128 9.9335 2.43788 4.81698 4.25862 3.82594C6.07936 2.8349 11.1498 6.3381 14.4225 12.2843C17.6952 18.2306 17.9718 24.4072 16.1511 25.3983Z" fill="#F7BE80"/>
<path opacity="0.3" d="M8.4072 15.603C5.01923 10.4865 2.85278 4.4481 4.39695 3.91801C4.48914 3.89496 4.35086 3.75668 4.25867 3.82582C2.43792 4.81686 4.55828 9.95642 7.85406 15.9026C11.1268 21.8719 14.3304 26.3892 16.1511 25.3982L16.2664 25.329C16.7503 24.8911 16.8886 24.5454 16.7964 24.5915C14.6069 25.6747 11.9795 20.9961 8.4072 15.603Z" fill="#B44A14"/>
<path d="M11.6568 13.6206C13.5467 17.0316 14.9526 20.2352 15.8284 22.7474C15.8745 22.8626 16.0358 22.8165 16.0128 22.7013C15.5057 20.4657 14.2151 17.0316 12.1869 13.3671C10.1818 9.7256 7.94618 6.75248 6.30982 5.07003C6.21763 4.97784 6.10239 5.09307 6.17154 5.18526C7.85399 7.30562 9.81302 10.2557 11.6568 13.6206Z" fill="#F1AA5E"/>
<path opacity="0.3" d="M12.2791 13.229C14.2151 16.7553 15.3905 20.2815 15.8745 23.0703C15.8976 23.1855 16.128 23.1394 16.128 23.0011C16.2894 20.4429 15.4366 16.5018 13.3163 12.6759C11.1959 8.827 8.33803 6.01522 6.10244 4.77066C5.9872 4.70152 5.82587 4.86285 5.91806 4.95504C7.99232 6.82188 10.3432 9.7028 12.2791 13.229Z" fill="#B44A14"/>
<path d="M11.8874 13.5282C13.7542 16.9162 15.0449 20.212 15.7363 22.8163C15.7593 22.9316 15.9898 22.8624 15.9898 22.7242C15.7593 20.3503 14.6761 16.7779 12.671 13.1364C10.6659 9.49496 8.22284 6.61403 6.28686 5.09291C6.19467 5.02376 5.98724 5.16205 6.07943 5.25424C7.92322 7.28241 10.0205 10.1403 11.8874 13.5282Z" fill="#FDD6B1"/>
<path d="M12.5788 15.6494C12.5557 15.7185 12.4635 15.7416 12.3944 15.7185C12.3253 15.6955 12.3022 15.6263 12.3483 15.5572C12.3714 15.5341 12.4174 15.488 12.4866 15.4419C12.5327 15.3959 12.6018 15.4419 12.6018 15.488C12.6018 15.5572 12.6018 15.6263 12.5788 15.6494Z" fill="#FDD6B1"/>
<path d="M6.74778 6.91451C6.72473 6.96061 6.65559 6.98366 6.6095 6.96061C6.5634 6.93756 6.54035 6.89147 6.5634 6.84537C6.58645 6.82232 6.63254 6.77623 6.67864 6.75318C6.72473 6.73013 6.77083 6.75318 6.77083 6.79928C6.77083 6.84537 6.77083 6.89147 6.74778 6.91451Z" fill="#FDD6B1"/>
<path d="M14.4225 14.2436C14.3995 14.2897 14.3303 14.3128 14.2842 14.2897C14.2381 14.2667 14.2151 14.2206 14.2381 14.1745C14.2612 14.1514 14.3073 14.1053 14.3534 14.0823C14.3995 14.0592 14.4456 14.0823 14.4456 14.1284C14.4456 14.1514 14.4456 14.2206 14.4225 14.2436Z" fill="#FDD6B1"/>
<path d="M10.1357 11.8922C10.0896 11.8461 10.0666 11.7769 10.0896 11.7078C10.1127 11.6386 10.1818 11.6156 10.2509 11.6617C10.274 11.6847 10.3201 11.7539 10.3662 11.8C10.3892 11.8461 10.3662 11.9152 10.297 11.9152C10.2509 11.9152 10.1588 11.9152 10.1357 11.8922Z" fill="#FDD6B1"/>
<path d="M9.76703 8.50445C9.72093 8.45836 9.69789 8.38922 9.72093 8.32008C9.74398 8.25093 9.81312 8.22789 9.88226 8.27398C9.90531 8.29703 9.95141 8.36617 9.9975 8.41226C10.0205 8.45836 9.9975 8.5275 9.92836 8.5275C9.85922 8.5275 9.79007 8.5275 9.76703 8.50445Z" fill="#FDD6B1"/>
<path d="M8.77597 9.74898C8.75292 9.81812 8.66073 9.84117 8.59159 9.81812C8.52245 9.79508 8.4994 9.72593 8.5455 9.65679C8.56854 9.63374 8.61464 9.58765 8.68378 9.54155C8.72987 9.49546 8.79902 9.54155 8.79902 9.58765C8.79902 9.65679 8.77597 9.72593 8.77597 9.74898Z" fill="#FDD6B1"/>
<path d="M14.0538 19.1982C14.0307 19.2673 13.9386 19.2904 13.8694 19.2673C13.8003 19.2443 13.7772 19.1751 13.8233 19.106C13.8464 19.083 13.8925 19.0369 13.9616 18.9908C14.0077 18.9447 14.0768 18.9908 14.0768 19.0369C14.0768 19.083 14.0768 19.1521 14.0538 19.1982Z" fill="#FDD6B1"/>
<path d="M15.3906 16.5252C15.4366 16.5713 15.4366 16.6404 15.3906 16.6865C15.3445 16.7326 15.2753 16.7326 15.2292 16.6865C15.2062 16.6635 15.1831 16.5943 15.1601 16.5482C15.137 16.5021 15.1831 16.4561 15.2292 16.4561C15.2984 16.4791 15.3675 16.5021 15.3906 16.5252Z" fill="#E2944A"/>
<path d="M13.8233 13.0905C13.8003 13.1366 13.7312 13.1596 13.662 13.1366C13.5929 13.1135 13.5698 13.0444 13.5929 12.9983C13.6159 12.9753 13.662 12.9292 13.7081 12.8831C13.7542 12.86 13.8233 12.8831 13.8233 12.9292C13.8233 12.9983 13.8233 13.0674 13.8233 13.0905Z" fill="#E2944A"/>
<path d="M12.0026 9.77213C11.9796 9.81822 11.9104 9.84127 11.8413 9.81822C11.7721 9.79518 11.7491 9.72604 11.7721 9.67994C11.7952 9.65689 11.8413 9.6108 11.8874 9.56471C11.9335 9.54166 12.0026 9.56471 12.0026 9.6108C12.0257 9.67994 12.0257 9.74908 12.0026 9.77213Z" fill="#E2944A"/>
<path d="M13.7081 17.7C13.7542 17.7461 13.7542 17.8152 13.7081 17.8613C13.662 17.9074 13.5929 17.9074 13.5468 17.8613C13.5238 17.8383 13.5007 17.7691 13.4777 17.723C13.4546 17.677 13.5007 17.6309 13.5468 17.6309C13.6159 17.6539 13.6851 17.677 13.7081 17.7Z" fill="#E2944A"/>
<path d="M9.58258 10.5555C9.62868 10.6016 9.62868 10.6707 9.58258 10.7168C9.53649 10.7629 9.46734 10.7629 9.42125 10.7168C9.3982 10.6938 9.37516 10.6246 9.35211 10.5785C9.32906 10.5324 9.37516 10.4863 9.42125 10.4863C9.51344 10.5094 9.58258 10.5324 9.58258 10.5555Z" fill="#E2944A"/>
<path d="M11.6108 14.2896C11.6108 14.3587 11.5416 14.3818 11.4725 14.3818C11.4034 14.3818 11.3803 14.3126 11.3803 14.2435C11.3803 14.2204 11.4264 14.1513 11.4725 14.1052C11.4956 14.0591 11.5647 14.0822 11.5877 14.1283C11.5877 14.1743 11.6108 14.2435 11.6108 14.2896Z" fill="#E2944A"/>
<path fill-rule="evenodd" clip-rule="evenodd" d="M26.6146 8.29711L27.1907 7.81311C27.6056 7.49045 27.813 7.14474 28.0665 6.6377L30.7861 7.76702C30.6018 8.32015 30.5326 8.71196 30.5787 9.219L30.6479 9.97957L26.6146 8.29711Z" fill="#B7E0EC"/>
<path fill-rule="evenodd" clip-rule="evenodd" d="M27.7669 6.5684L28.0896 5.76174C28.1357 5.66956 28.2509 5.60041 28.3431 5.64651L31.2701 6.84497C31.3623 6.89107 31.4315 7.0063 31.3854 7.09849L31.0627 7.90515L27.7669 6.5684Z" fill="#F51D41"/>
<path fill-rule="evenodd" clip-rule="evenodd" d="M20.6453 20.7427L25.0934 9.91039C25.2778 9.49554 25.4853 9.21897 25.8079 8.96545L26.799 8.13574L30.6479 9.70296L30.7631 10.9706C30.8322 11.3624 30.7861 11.7081 30.6248 12.146L26.1767 22.9783C26.0845 23.2087 25.9462 23.3931 25.5774 23.2318L20.8758 21.2958C20.507 21.1806 20.5301 20.9731 20.6453 20.7427Z" fill="#B7E0EC"/>
<path fill-rule="evenodd" clip-rule="evenodd" d="M28.8963 5.87704L28.3662 5.64657C28.274 5.60048 28.1357 5.64657 28.1127 5.76181L27.79 6.56847L28.3201 6.79894L28.6427 5.99228C28.6658 5.87704 28.781 5.83095 28.8963 5.87704Z" fill="#FB5C80"/>
<path d="M30.8817 6.8798L30.0929 6.55566L29.7776 7.32306L30.5663 7.64719L30.8817 6.8798Z" fill="#FB5C80"/>
<path fill-rule="evenodd" clip-rule="evenodd" d="M21.0371 20.5579L25.347 10.0483C25.5083 9.65647 25.7157 9.426 25.9923 9.19552L26.8911 8.45801L30.3713 9.88694L30.4865 11.0393C30.5557 11.4081 30.5096 11.7077 30.3482 12.0995L26.0384 22.6091C25.9462 22.8165 25.831 22.9778 25.5083 22.8396L21.2676 21.088C20.9219 20.9497 20.9449 20.7653 21.0371 20.5579Z" fill="#EAEFF1"/>
<path fill-rule="evenodd" clip-rule="evenodd" d="M22.0281 20.5121C21.7976 20.4199 21.6824 20.1664 21.7746 19.9359L25.8079 10.0947C25.9001 9.84113 26.1075 9.63371 26.338 9.51847L26.6837 9.33409C26.8681 9.2419 27.0524 9.42628 26.9833 9.61066L22.6043 20.2816C22.5352 20.489 22.2586 20.6043 22.0281 20.5121Z" fill="white"/>
<path fill-rule="evenodd" clip-rule="evenodd" d="M28.8502 14.428C29.0115 14.4971 29.1959 14.428 29.2651 14.2436L30.3022 11.7314C30.3713 11.547 30.3944 11.3627 30.3252 11.1783L30.2331 10.9017C30.187 10.7634 30.0026 10.7634 29.9565 10.8787L28.6658 13.9901C28.6197 14.1514 28.6889 14.3588 28.8502 14.428Z" fill="white"/>
<path opacity="0.3" fill-rule="evenodd" clip-rule="evenodd" d="M29.3803 8.82718L29.8182 7.74395L28.8271 7.3291L28.3892 8.41233C28.2509 8.73499 28.0205 9.03461 27.7209 9.24203C27.4443 9.44946 27.2369 9.70298 27.0986 10.0256L22.4891 21.2267L24.5403 22.0794L29.1498 10.8784C29.2881 10.5557 29.3111 10.21 29.265 9.88736C29.2189 9.5186 29.242 9.14984 29.3803 8.82718Z" fill="white"/>
<path opacity="0.2" d="M26.1766 23.0017L28.9884 16.1797C26.4532 19.9825 24.3328 20.3974 22.466 19.6368C21.982 19.4294 21.6593 19.1528 21.4519 18.8532L20.6683 20.7431C20.5761 20.9735 20.53 21.181 20.8988 21.3423L25.6004 23.2783C25.9692 23.4166 26.0844 23.2552 26.1766 23.0017Z" fill="#2193F7"/>
<path d="M4.48915 35.1935L4.4661 18.4842C4.4661 18.0232 4.83486 17.6545 5.29581 17.6545L30.2792 17.6084C30.7401 17.6084 31.1089 17.9772 31.1089 18.4381L31.1319 35.1474C31.1319 35.6084 30.7632 35.9771 30.3022 35.9771L5.31886 36.0232C4.85791 36.0232 4.48915 35.6314 4.48915 35.1935Z" fill="#5D43B8"/>
<path d="M9.67483 21.0883L14.607 11.7541C15.2292 10.6018 16.4277 9.86426 17.7414 9.86426C19.0551 9.86426 20.2766 10.5787 20.8989 11.7541L25.8771 21.0653" stroke="#5D43B8" stroke-width="1.5" stroke-miterlimit="10"/>
<path d="M4.44304 32.312V35.1699C4.44304 35.6308 4.8118 35.9996 5.27274 35.9996L30.2561 35.9535C30.717 35.9535 31.0858 35.5847 31.0858 35.1238L31.0628 19.2441C25.5775 25.3056 15.1601 31.1596 4.44304 32.312Z" fill="#4139A1"/>
<path d="M17.6492 25.8133C17.6492 25.0067 16.9808 24.4766 16.0128 24.4766C15.0909 24.4766 14.146 25.1449 14.146 26.5969C14.146 27.7262 14.8144 28.5329 15.9898 28.5329C16.6582 28.5329 17.3726 28.1641 17.557 27.8876C17.557 27.8876 17.4418 27.4036 17.0961 27.4036C16.9117 27.4036 16.7734 27.4727 16.6351 27.5419C16.4738 27.611 16.2894 27.6571 16.0589 27.6571C15.7363 27.6571 15.1601 27.5188 15.1601 26.8274C15.1601 26.8274 15.4136 26.8965 16.0359 26.8965C17.3496 26.9196 17.6492 26.3664 17.6492 25.8133ZM16.0589 25.3524C16.4968 25.3524 16.7273 25.5828 16.7273 25.8133C16.7273 26.0668 16.4968 26.2512 16.0589 26.2512C15.4366 26.2512 15.2062 26.159 15.2062 26.159C15.2062 25.7903 15.5058 25.3524 16.0589 25.3524Z" fill="#FDCF33"/>
<path d="M20.0692 27.6806C19.6313 27.6806 19.4008 27.3118 19.3547 27.1505C19.3086 26.9891 19.2855 26.7587 19.2855 26.5282V25.3297H19.6082C19.8617 25.3297 20.0692 25.2606 20.2074 25.0993C20.3457 24.9379 20.4149 24.7305 20.4149 24.477H19.2855V23.9469C19.2855 23.7856 19.2855 23.6473 19.2855 23.532C19.2855 23.4168 19.2855 23.3477 19.3086 23.2785C19.3086 23.2094 19.3086 23.1633 19.3316 23.1172C18.9859 23.1172 18.7324 23.1863 18.548 23.3477C18.3637 23.4859 18.2715 23.7395 18.2715 24.0852V26.7587C18.2715 27.8419 18.8016 28.5564 19.7926 28.5564C20.2766 28.5564 20.6453 28.2798 20.6453 27.888C20.6453 27.7497 20.6223 27.6806 20.6223 27.6345C20.484 27.6345 20.3227 27.6806 20.0692 27.6806Z" fill="#FDCF33"/>
<path d="M21.4059 24.177C21.4981 24.2231 21.5672 24.2461 21.6594 24.2461C21.8669 24.2461 22.0512 24.1539 22.1665 23.9465C22.2126 23.8543 22.2356 23.7621 22.2356 23.6469C22.2356 23.5547 22.2126 23.4625 22.1665 23.3703C22.1204 23.2781 22.0512 23.209 21.959 23.1629C21.8669 23.1168 21.7977 23.0938 21.7055 23.0938C21.6133 23.0938 21.5211 23.1168 21.429 23.1859C21.3368 23.232 21.2676 23.3242 21.2215 23.4164C21.1754 23.5086 21.1524 23.6008 21.1524 23.716C21.1524 23.8082 21.1754 23.9004 21.2215 23.9926C21.2446 24.0387 21.3137 24.1078 21.4059 24.177Z" fill="#FDCF33"/>
<path d="M22.5583 27.7264C22.3278 27.7264 22.1895 27.5651 22.1895 27.3116V25.3756C22.1895 25.2143 22.1895 25.076 22.1895 24.9608C22.1895 24.8455 22.1895 24.7764 22.2126 24.7072C22.2126 24.6381 22.2126 24.592 22.2356 24.5459C21.8899 24.5459 21.6133 24.615 21.429 24.7764C21.2446 24.9147 21.1524 25.1682 21.1524 25.5139V27.4729C21.1524 28.1874 21.6133 28.5561 22.1665 28.5331C22.5352 28.51 22.8348 28.3487 22.8348 27.98C22.8348 27.8186 22.8118 27.7034 22.8118 27.7034C22.7196 27.7034 22.6735 27.7264 22.5583 27.7264Z" fill="#FDCF33"/>
<path d="M25.0935 24.5459C24.8861 24.5459 24.6556 24.5689 24.4482 24.615C24.2407 24.6611 24.0333 24.7533 23.8489 24.8916C23.6646 25.0299 23.5263 25.2143 23.411 25.4678C23.2958 25.6983 23.2497 26.0209 23.2497 26.3897V27.496C23.2497 27.8417 23.2958 28.1413 23.5032 28.3026C23.7337 28.464 23.9872 28.487 24.3329 28.487C24.3329 28.464 24.3099 28.3487 24.3099 28.2796C24.3099 28.2104 24.3099 28.1413 24.2868 28.0261C24.2868 27.9108 24.2868 27.7725 24.2868 27.6112V26.2053C24.2868 25.8596 24.3329 25.4447 24.9322 25.3987C25.2548 25.3756 25.5544 25.2373 25.5544 24.8916C25.5544 24.7994 25.5314 24.6611 25.4853 24.5689L25.0935 24.5459Z" fill="#FDCF33"/>
<path d="M11.8182 24.4766C10.6197 24.4766 9.9744 25.3293 9.9744 26.3434C9.9744 27.2883 10.5506 28.1872 11.6108 28.1872C12.1639 28.1872 12.4866 27.9567 12.5557 27.8876V28.3716C12.5557 28.9247 12.3483 29.2935 11.7951 29.2935C11.5186 29.2935 11.3342 29.2243 11.1498 29.1321C10.9885 29.063 10.8733 28.9708 10.7119 28.9708C10.2971 28.9708 10.1818 29.4778 10.1818 29.4778C10.4814 29.8696 11.1959 30.1693 11.7951 30.1693C12.9706 30.1693 13.5928 29.4778 13.5928 28.1411C13.5928 28.1411 13.5928 26.7813 13.5928 26.5739C13.5928 25.3293 13.0628 24.4766 11.8182 24.4766ZM11.8182 27.2883C11.3572 27.2883 11.0115 27.0118 11.0115 26.3664C11.0115 25.6981 11.3572 25.3524 11.8182 25.3524C12.2561 25.3524 12.5788 25.6059 12.5788 26.3204C12.5788 27.0348 12.233 27.2883 11.8182 27.2883Z" fill="#FDCF33"/>
</g>
<defs>
<clipPath id="clip0">
<rect width="31.0679" height="36" fill="white" transform="translate(2)"/>
</clipPath>
</defs>
</svg>
