<svg width="51" height="40" viewBox="0 0 51 40" fill="none" xmlns="http://www.w3.org/2000/svg">
<path d="M17.0158 1.25757H6.43884" stroke="#D7CADF" stroke-miterlimit="10" stroke-linecap="round" stroke-linejoin="round"/>
<path d="M29.3054 5.79468H20.1107" stroke="#D7CADF" stroke-miterlimit="10" stroke-linecap="round" stroke-linejoin="round"/>
<path d="M17.5865 5.79468H13.8906" stroke="#D7CADF" stroke-miterlimit="10" stroke-linecap="round" stroke-linejoin="round"/>
<path d="M46.673 6.45605H40.3029" stroke="#D7CADF" stroke-miterlimit="10" stroke-linecap="round" stroke-linejoin="round"/>
<path d="M16.4448 20.0979H5.86792" stroke="#D7CADF" stroke-miterlimit="10" stroke-linecap="round" stroke-linejoin="round"/>
<path d="M3.34375 20.0979H1" stroke="#D7CADF" stroke-miterlimit="10" stroke-linecap="round" stroke-linejoin="round"/>
<path d="M30.7174 14.539C30.7174 14.3287 30.6573 14.1484 30.5672 13.9982C30.5672 13.9982 28.9746 11.384 28.3136 10.2421C27.5924 9.04022 26.9915 8.37917 26.9614 8.34912L26.9314 8.28902C26.3004 7.41763 25.0083 7.26739 24.1069 8.01859C23.2054 8.76979 23.0852 10.0318 23.8364 10.8431L28.6742 15.5006C28.8845 15.771 29.2451 15.8611 29.6357 15.771C30.2066 15.6508 30.6874 15.0799 30.7174 14.539Z" fill="#4722AD"/>
<path d="M35.9458 11.9851C36.3064 11.925 36.6369 12.1654 36.7271 12.4959C36.7571 12.6762 36.7271 12.8565 36.6369 13.0067C36.5468 13.1569 36.3965 13.2771 36.2162 13.3072C36.036 13.3372 35.8557 13.3072 35.7054 13.217C35.5552 13.1269 35.435 12.9767 35.4049 12.7964C35.3749 12.6161 35.4049 12.4358 35.4951 12.2855C35.5852 12.1353 35.7355 12.0151 35.9158 11.9851C35.9158 11.9851 35.9158 11.9851 35.9458 11.9851Z" fill="#E5C1B6"/>
<path d="M35.7355 12.1052L34.7739 12.6461L35.0444 13.3672L36.1862 13.2771L35.7355 12.1052Z" fill="#E5C1B6"/>
<path d="M35.5252 13.8179C35.5252 13.8179 32.0095 15.0498 31.1682 15.3804C30.3268 15.6808 29.786 15.801 29.7559 15.801L29.7259 15.8311C29.1249 15.9813 28.4939 15.6508 28.3437 15.0498C28.1934 14.4489 28.524 13.8179 29.1249 13.6676L35.0143 12.2854L35.5252 13.8179Z" fill="#4722AD"/>
<path d="M35.1645 14.0283L35.6152 13.848L35.1645 12.1653L34.6537 12.1953L35.1645 14.0283Z" fill="#5D38BC"/>
<path d="M34.1428 12.4355L34.6236 14.1483C34.5034 14.2084 34.3532 14.2384 34.233 14.2985L33.7522 12.5257L34.1428 12.4355Z" fill="#BDC6D7"/>
<path d="M24.798 7.71795L25.7896 7.748C27.1117 7.77805 28.1634 8.85978 28.1634 10.1819L28.2235 17.3333C28.2235 17.7841 27.8629 18.1446 27.4122 18.1446H22.6346C22.1839 18.1446 21.7932 17.754 21.8233 17.3033L22.3341 9.97156C22.4242 8.67949 23.506 7.6879 24.798 7.71795Z" fill="#5D31C0"/>
<path d="M29.0538 11.2821L21.7872 11.5459L21.8025 11.9663L29.069 11.7024L29.0538 11.2821Z" fill="#BCC5D5"/>
<path d="M28.9935 11.8834L21.7269 12.1472L21.7422 12.5676L29.0087 12.3038L28.9935 11.8834Z" fill="#BCC5D5"/>
<path d="M32.0997 31.4258L30.5973 22.1409L33.9326 22.0808L34.143 31.2755L32.0997 31.4258Z" fill="#502FB0"/>
<path d="M31.739 29.2024L34.0828 28.8118V29.2324L31.7991 29.6231L31.739 29.2024Z" fill="#BCC5D5"/>
<path d="M31.649 28.6013L34.0829 28.2407V28.6914L31.7091 29.052L31.649 28.6013Z" fill="#BCC5D5"/>
<path d="M49.8281 39.2384H10.5252C10.2548 39.2384 10.0144 39.0281 10.0144 38.7276C10.0144 38.4572 10.2247 38.2168 10.5252 38.2168H49.8281C50.0985 38.2168 50.3389 38.4271 50.3389 38.7276C50.3389 39.0281 50.1286 39.2384 49.8281 39.2384Z" fill="#5D31C0"/>
<path d="M9.11292 39.2384H4.93623C4.6658 39.2384 4.42542 39.0281 4.42542 38.7276C4.42542 38.4572 4.63575 38.2168 4.93623 38.2168H9.11292C9.38335 38.2168 9.62373 38.4271 9.62373 38.7276C9.59368 39.0281 9.38335 39.2384 9.11292 39.2384Z" fill="#5D31C0"/>
<path d="M16.114 25.687C17.9169 25.687 19.5395 26.4082 20.7114 27.58C21.8833 28.7519 22.6044 30.3745 22.6044 32.1774C22.6044 33.9803 21.8833 35.6029 20.7114 36.7748C19.5395 37.9466 17.9169 38.6678 16.114 38.6678C14.3112 38.6678 12.6886 37.9466 11.5167 36.7748C10.3448 35.6029 9.62366 33.9803 9.62366 32.1774C9.62366 30.3745 10.3448 28.7519 11.5167 27.58C12.6886 26.4082 14.3112 25.687 16.114 25.687ZM18.9686 29.3228C18.2475 28.6017 17.2258 28.1209 16.114 28.1209C15.0023 28.1209 13.9806 28.5716 13.2595 29.3228C12.5383 30.044 12.0876 31.0656 12.0876 32.1774C12.0876 33.2892 12.5383 34.3108 13.2595 35.032C13.9806 35.7531 15.0023 36.2038 16.114 36.2038C17.2258 36.2038 18.2475 35.7531 18.9686 35.032C19.6898 34.3108 20.1405 33.2892 20.1405 32.1774C20.1705 31.0656 19.7198 30.044 18.9686 29.3228Z" fill="#1E1D31"/>
<path fill-rule="evenodd" clip-rule="evenodd" d="M14.9722 33.1386C15.6934 33.8597 16.8953 33.8297 17.6165 33.1085C18.3376 32.3874 18.3076 31.1855 17.5864 30.4643C16.8352 29.7432 15.6633 29.7732 14.9422 30.4944C14.221 31.2456 14.221 32.4475 14.9722 33.1386Z" fill="#1E1D31"/>
<path d="M16.8653 32.1169C16.715 32.4173 16.3545 32.5375 16.054 32.3873C15.7535 32.237 15.6333 31.8765 15.7836 31.576L17.917 27.0387C18.0672 26.7382 18.4278 26.6181 18.7283 26.7683C19.0287 26.9185 19.1489 27.2791 18.9987 27.5796L16.8653 32.1169Z" fill="#06060A"/>
<path d="M43.3075 25.687C45.1104 25.687 46.733 26.4082 47.9049 27.58C49.0768 28.7519 49.7979 30.3745 49.7979 32.1774C49.7979 33.9803 49.0768 35.6029 47.9049 36.7748C46.733 37.9466 45.1104 38.6678 43.3075 38.6678C41.5046 38.6678 39.882 37.9466 38.7102 36.7748C37.5383 35.6029 36.8171 33.9803 36.8171 32.1774C36.8171 30.3745 37.5383 28.7519 38.7102 27.58C39.882 26.4082 41.5347 25.687 43.3075 25.687ZM46.1921 29.3228C45.471 28.6017 44.4494 28.1209 43.3376 28.1209C42.2258 28.1209 41.2042 28.5716 40.483 29.3228C39.7619 30.044 39.3111 31.0656 39.3111 32.1774C39.3111 33.2892 39.7619 34.3108 40.483 35.032C41.2042 35.7531 42.2258 36.2038 43.3376 36.2038C44.4494 36.2038 45.471 35.7531 46.1921 35.032C46.9133 34.3108 47.3941 33.2892 47.3941 32.1774C47.364 31.0656 46.9133 30.044 46.1921 29.3228Z" fill="#1E1D31"/>
<path fill-rule="evenodd" clip-rule="evenodd" d="M43.2776 34.0399C44.2992 34.0399 45.1406 33.1986 45.1406 32.1769C45.1406 31.1553 44.2992 30.314 43.2776 30.314C42.2559 30.314 41.4146 31.1553 41.4146 32.1769C41.3846 33.2286 42.2259 34.0399 43.2776 34.0399Z" fill="#1E1D31"/>
<path d="M43.8786 31.997C43.9688 32.3275 43.8185 32.6581 43.488 32.7482C43.1575 32.8383 42.8269 32.6881 42.7368 32.3576L37.8991 17.4537C37.8089 17.1232 37.9592 16.7927 38.2897 16.7025C38.6202 16.6124 38.9507 16.7626 39.0709 17.0931L43.8786 31.997Z" fill="#06060A"/>
<path d="M46.012 37.2556C45.8617 37.3157 45.6815 37.2256 45.6214 37.0753C45.5613 36.9251 45.6514 36.7448 45.8017 36.6847C45.9819 36.6246 46.1322 36.5345 46.3125 36.4443C47.2139 35.9335 47.905 35.002 48.2656 33.9203C48.6262 32.8386 48.6863 31.6366 48.3257 30.645C48.2656 30.4347 48.1755 30.2544 48.0553 30.0441C47.9651 29.8938 48.0252 29.7136 48.1754 29.6234C48.3257 29.5333 48.506 29.5934 48.5961 29.7436C48.7163 29.9539 48.8065 30.1943 48.8966 30.4347C49.2872 31.5765 49.2271 32.9287 48.8365 34.1306C48.4158 35.3325 47.6346 36.3842 46.6129 36.9852C46.4327 37.0753 46.2223 37.1655 46.012 37.2556Z" fill="#06060A"/>
<path fill-rule="evenodd" clip-rule="evenodd" d="M20.6213 34.3407C20.3509 34.9717 20.8016 35.6929 21.4927 35.6929H28.4338C29.6958 35.6628 30.1766 35.0919 30.2367 34.2506L22.5744 32.1772L21.673 32.5378C21.4627 32.628 21.2523 32.8083 21.1622 33.0486L20.6213 34.3407Z" fill="#4722AD"/>
<path fill-rule="evenodd" clip-rule="evenodd" d="M26.601 22.3213C27.202 22.5917 27.6527 23.4631 27.3522 24.2143L26.7813 25.8069L25.5493 29.1723C25.0685 30.4643 25.8798 31.3958 27.0217 31.3958C25.2188 32.2672 23.4459 31.0352 24.137 28.8718L26.601 22.3213Z" fill="#2E1887"/>
<path fill-rule="evenodd" clip-rule="evenodd" d="M38.53 15.3803C38.1994 15.14 37.7487 15.0799 37.3881 15.2301C35.4951 16.0114 35.8256 17.8142 36.2764 19.3467L37.0576 23.0426C37.2078 23.7337 37.0877 24.4549 36.7271 25.0258L33.7824 29.8335C33.2114 30.795 32.1598 31.3659 31.048 31.3659H27.0215C25.8797 31.3659 25.0684 30.4344 25.5492 29.1424L26.7812 25.807L27.3521 24.2145C27.6826 23.313 26.9915 22.2614 26.2403 22.2313H15.6634C13.2896 22.8924 11.0059 25.176 10.1345 27.64L13.4699 27.9104L21.1321 30.5546C21.1321 30.5546 22.0035 31.6964 22.1538 32.057C22.304 32.4176 24.8881 34.1303 24.8881 34.1303L36.5468 34.3407L39.0708 30.6748C39.0708 30.6748 40.7836 24.8755 44.5997 24.8755C44.78 24.8755 46.1321 24.8755 47.304 24.8755C47.905 24.8755 48.2054 24.1243 47.7547 23.7037L38.53 15.3803Z" fill="#5D31C0"/>
<path fill-rule="evenodd" clip-rule="evenodd" d="M13.1995 23.4932C13.9507 22.9223 14.792 22.4716 15.6334 22.2312H26.2403C26.7812 22.2612 27.292 22.8322 27.4122 23.4932H13.1995Z" fill="#4722AD"/>
<path d="M21.3425 34.7914C21.0119 34.7613 20.7716 34.4609 20.8016 34.1003C20.8317 33.7698 21.1321 33.5294 21.4927 33.5594L24.3172 33.89L25.7896 33.6195C26.1201 33.5594 26.4507 33.7998 26.5107 34.1303C26.5708 34.4609 26.3305 34.7914 25.9999 34.8214L24.4374 35.0919C24.3773 35.0919 24.3172 35.1219 24.2571 35.0919L21.3425 34.7914Z" fill="#4722AD"/>
<path d="M14.0409 34.3102C13.3798 34.2201 13.5301 33.7393 13.6202 33.0482C13.7103 32.3571 13.6803 31.7862 14.3413 31.8763L21.4627 32.8379C22.1238 32.928 22.6046 33.529 22.5144 34.2201C22.4243 34.9112 21.8233 35.3619 21.1322 35.2718L14.0409 34.3102Z" fill="#4722AD"/>
<path d="M12.7488 33.409C12.4182 33.379 12.5084 33.1386 12.5384 32.8081C12.5685 32.4775 12.5685 32.2071 12.899 32.2371L16.3545 32.6879C16.6851 32.7179 16.8954 33.0184 16.8653 33.3489C16.8353 33.6795 16.5348 33.8898 16.2043 33.8597L12.7488 33.409Z" fill="#4722AD"/>
<path d="M22.0336 31.0355C22.0636 30.7049 22.3942 30.4645 22.7247 30.4946C23.0552 30.5246 23.2956 30.8251 23.2655 31.1857C23.2355 31.3059 23.2355 31.396 23.2355 31.4862C23.2054 32.0571 23.3256 32.5379 23.5961 32.8383C23.8665 33.1689 24.2872 33.3492 24.8581 33.4393C24.9482 33.4693 25.0684 33.4693 25.1285 33.4693H33.0913C34.3232 33.4693 35.2848 33.4393 35.9759 33.1088C36.6369 32.8083 37.1478 32.1773 37.5684 31.0054L39.4314 25.8371C39.792 24.8756 39.9723 24.2446 40.0023 23.7037C40.0324 23.1629 39.9122 22.622 39.6417 21.7506L37.899 16.7025C37.8088 16.372 37.9591 16.0415 38.2896 15.9213C38.6201 15.8311 38.9506 15.9814 39.0708 16.3119L40.8136 21.2999C41.1441 22.3215 41.2944 22.9826 41.2343 23.7338C41.2042 24.4249 40.9639 25.146 40.5732 26.2278L38.7103 31.366C38.1694 32.8984 37.4783 33.7097 36.5167 34.1605C35.5853 34.6112 34.5035 34.6713 33.1213 34.6713H25.1285H25.0985C24.9482 34.6713 24.798 34.6412 24.6778 34.6412C23.7764 34.521 23.0853 34.1905 22.6045 33.6196C22.1538 33.0487 21.9134 32.3275 21.9434 31.4261C22.0035 31.2758 22.0336 31.1556 22.0336 31.0355Z" fill="#5D31C0"/>
<path fill-rule="evenodd" clip-rule="evenodd" d="M22.2138 32.0569C25.8196 22.2612 12.1778 20.1578 8.33161 27.6999C8.03113 28.2708 8.36166 28.9919 9.02271 29.1422L22.2138 32.0569Z" fill="#4722AD"/>
<path d="M10.0443 27.4292C9.95417 27.5795 9.77388 27.6095 9.62364 27.5194C9.4734 27.4292 9.44335 27.2489 9.53349 27.0987C10.4049 25.6864 11.8772 24.7249 13.5299 24.2742C15.3027 23.7634 17.2859 23.7934 18.9686 24.3643C19.1188 24.4244 19.209 24.5747 19.1489 24.755C19.0888 24.9052 18.9085 24.9953 18.7583 24.9352C17.1657 24.3944 15.3328 24.3944 13.6801 24.8451C12.1777 25.2958 10.8256 26.1672 10.0443 27.4292Z" fill="#5D31C0"/>
<path d="M26.2704 33.8297C25.9399 33.8297 25.6694 33.5592 25.6694 33.1986C25.6694 32.8681 25.9399 32.5676 26.2704 32.5676H34.3834C34.804 32.5376 35.1646 32.4174 35.4351 32.2672C35.7055 32.1169 35.8858 31.9366 36.036 31.6962L37.3882 28.0003C37.5084 27.6698 37.8389 27.5196 38.1694 27.6397C38.5 27.7599 38.6502 28.1205 38.53 28.421L37.1778 32.177C37.1478 32.2071 37.1478 32.2672 37.1177 32.2972C36.8473 32.7479 36.4867 33.1085 36.006 33.3489C35.5552 33.5893 35.0444 33.7395 34.4435 33.7996C34.4134 33.7996 34.3834 33.7996 34.3834 33.7996L26.2704 33.8297Z" fill="#4722AD"/>
<path fill-rule="evenodd" clip-rule="evenodd" d="M34.5637 13.9679L34.6839 15.1999C34.744 15.8008 35.2548 16.2515 35.8558 16.1914L39.7019 15.8609C40.8738 15.7708 41.2344 14.2083 40.2428 13.6073L37.6887 12.0148C36.2464 11.1434 34.4135 12.2852 34.5637 13.9679Z" fill="#4722AD"/>
<path d="M36.2464 14.6593C36.0661 14.6593 35.8858 14.5992 35.7355 14.479L34.9242 13.878L33.542 13.6076C33.0913 13.5174 32.7908 13.0968 32.881 12.646C32.9711 12.1953 33.3918 11.8948 33.8425 11.985L35.405 12.2855C35.5252 12.3155 35.6454 12.3456 35.7355 12.4357L36.6971 13.1569C37.0577 13.4273 37.1478 13.9381 36.8774 14.3287C36.7572 14.5691 36.5168 14.6593 36.2464 14.6593Z" fill="#4722AD"/>
<path d="M36.2163 13.0965C36.006 13.0965 35.7957 12.9763 35.7055 12.766L34.4736 10.0316C34.3834 9.85135 34.4135 9.64101 34.5337 9.46072C34.6538 9.31048 34.8642 9.22034 35.0445 9.25039L35.7957 9.37058C35.9459 9.40063 36.0962 9.49077 36.1863 9.64101C36.2764 9.79125 36.3065 9.94149 36.2464 10.0917L36.0361 10.8129L36.7272 12.3153C36.8474 12.5857 36.7272 12.9163 36.4567 13.0364C36.3666 13.0965 36.2764 13.0965 36.2163 13.0965Z" fill="#7E65D6"/>
<path d="M46.0421 24.064C45.9519 24.064 45.8618 24.034 45.7716 23.9739L41.8654 20.4583C41.7152 20.308 41.6851 20.0676 41.8353 19.9174C41.9856 19.7672 42.226 19.7371 42.3762 19.8873L46.2825 23.403C46.4327 23.5532 46.4628 23.7936 46.3125 23.9438C46.2524 24.034 46.1322 24.064 46.0421 24.064Z" fill="#7E65D6"/>
<path fill-rule="evenodd" clip-rule="evenodd" d="M16.1141 23.1625V19.3765H27.6526C28.3437 19.3765 28.9747 19.6469 29.4555 20.1577L30.9278 21.7202C31.1983 21.9906 31.2283 22.4113 31.048 22.7118C30.8978 22.9822 30.5973 23.1625 30.2968 23.1625H18.6682H16.1141Z" fill="#5D31C0"/>
<path fill-rule="evenodd" clip-rule="evenodd" d="M16.1141 21.8406C16.1141 22.5617 16.7151 23.1627 17.4363 23.1627H18.6682H30.2668C30.5372 23.1627 30.7776 23.0725 30.9579 22.8923C31.2283 22.5918 31.2584 22.1711 31.048 21.8706L16.1141 21.8406Z" fill="#4722AD"/>
<path fill-rule="evenodd" clip-rule="evenodd" d="M34.2031 29.1421H35.2548C35.5553 29.1421 35.8558 28.9919 36.0661 28.7515L39.6418 24.3945C40.1827 23.7335 40.3029 22.8621 39.9423 22.0808L36.9375 15.4402C35.5252 16.3116 35.8257 17.9342 36.2464 19.3464L37.0276 23.0423C37.1779 23.7335 37.0577 24.4546 36.6971 25.0255L34.2031 29.1421Z" fill="#4722AD"/>
<path d="M45.471 24.1542C45.0503 24.1542 44.7198 24.034 44.4794 23.7936C44.0287 23.3429 44.0888 22.6818 44.1188 22.5917C44.1489 22.3813 44.3292 22.2311 44.5695 22.2612C44.7799 22.2912 44.9301 22.4715 44.9001 22.6818C44.9001 22.6818 44.87 23.0424 45.0503 23.2227C45.2306 23.403 45.5611 23.3729 45.8015 23.3429C46.0119 23.3128 46.2222 23.4631 46.2522 23.6434C46.2823 23.8537 46.1321 24.064 45.9518 24.0941C45.7414 24.1241 45.5912 24.1542 45.471 24.1542Z" fill="#7E65D6"/>
<path d="M17.7668 14.689C16.6851 14.659 15.6334 14.2383 14.8522 13.5171C14.0108 12.7659 12.869 12.2852 11.637 12.2852C8.99279 12.2852 6.85938 14.4186 6.85938 17.0628C6.85938 17.1229 6.85938 17.183 6.85938 17.213C6.85938 17.2731 6.85938 17.3332 6.85938 17.3933V22.2311C6.85938 22.8921 7.37019 23.4029 8.03125 23.4029H20.2909C20.9519 23.4029 21.4627 22.8921 21.4627 22.2311V15.951C21.4627 15.32 20.9519 14.8092 20.3209 14.7791L17.7668 14.689Z" fill="#FDD030"/>
<path d="M14.2211 18.325C14.2211 17.8142 13.8004 17.5137 13.2295 17.5137C12.6586 17.5137 12.0576 17.9343 12.0576 18.8358C12.0576 19.5269 12.4783 20.0377 13.1994 20.0377C13.6201 20.0377 14.0408 19.7973 14.161 19.6471C14.161 19.6471 14.0708 19.3466 13.8906 19.3466C13.7704 19.3466 13.7103 19.3767 13.6201 19.4368C13.53 19.4968 13.4098 19.4969 13.2595 19.4969C13.0492 19.4969 12.7187 19.4067 12.7187 18.986C12.7187 18.986 12.8689 19.0161 13.2595 19.0161C14.0408 19.0161 14.2211 18.6856 14.2211 18.325ZM13.2595 18.0545C13.53 18.0545 13.6802 18.2048 13.6802 18.325C13.6802 18.4752 13.53 18.5954 13.2595 18.5954C12.8689 18.5954 12.7487 18.5353 12.7487 18.5353C12.7187 18.325 12.899 18.0545 13.2595 18.0545Z" fill="#5D38BB"/>
<path d="M15.7235 19.4967C15.4531 19.4967 15.3028 19.2563 15.2728 19.1661C15.2427 19.076 15.2427 18.9257 15.2427 18.7755V18.0243H15.4531C15.6033 18.0243 15.7235 17.9943 15.8136 17.8741C15.9038 17.7839 15.9338 17.6637 15.9338 17.4834H15.2427V17.1529C15.2427 17.0628 15.2427 16.9726 15.2427 16.8825C15.2427 16.7923 15.2427 16.7623 15.2427 16.7322C15.2427 16.7022 15.2427 16.6721 15.2427 16.6421C15.0324 16.6421 14.8521 16.6721 14.762 16.7923C14.6418 16.8825 14.5817 17.0327 14.5817 17.2431V18.8957C14.5817 19.5868 14.9122 20.0075 15.5132 20.0075C15.8136 20.0075 16.024 19.8572 16.024 19.5868C16.024 19.4967 15.9939 19.4666 15.9939 19.4366C15.9639 19.4666 15.8737 19.4967 15.7235 19.4967Z" fill="#5D38BB"/>
<path d="M16.5348 17.3332C16.5949 17.3632 16.6249 17.3632 16.685 17.3632C16.8052 17.3632 16.9254 17.3031 16.9855 17.1829C17.0155 17.1228 17.0456 17.0627 17.0456 17.0026C17.0456 16.9426 17.0155 16.8825 17.0155 16.8224C16.9855 16.7623 16.9554 16.7322 16.8953 16.7022C16.8352 16.6721 16.8052 16.6721 16.7451 16.6721C16.685 16.6721 16.6249 16.7022 16.5648 16.7322C16.5047 16.7623 16.4747 16.8224 16.4446 16.8825C16.4146 16.9426 16.3845 17.0026 16.3845 17.0627C16.3845 17.1228 16.4146 17.1829 16.4146 17.243C16.4446 17.2731 16.4747 17.3031 16.5348 17.3332Z" fill="#5D38BB"/>
<path d="M17.2559 19.5266C17.1057 19.5266 17.0456 19.4365 17.0456 19.2562V18.0843C17.0456 17.9942 17.0456 17.904 17.0456 17.8139C17.0456 17.7538 17.0456 17.6937 17.0456 17.6636C17.0456 17.6336 17.0456 17.6035 17.0456 17.5735C16.8353 17.5735 16.655 17.6035 16.5348 17.7237C16.4146 17.8139 16.3545 17.9641 16.3545 18.1744V19.3764C16.3545 19.8271 16.6249 20.0374 16.9855 20.0374C17.1958 20.0374 17.4062 19.9172 17.4062 19.6769C17.4062 19.5867 17.3761 19.4966 17.3761 19.4966C17.3461 19.5266 17.316 19.5266 17.2559 19.5266Z" fill="#5D38BB"/>
<path d="M18.8184 17.5735C18.6982 17.5735 18.548 17.6035 18.4278 17.6035C18.3076 17.6336 18.1574 17.6937 18.0672 17.7838C17.947 17.874 17.8569 17.9942 17.7968 18.1444C17.7367 18.2946 17.7067 18.4749 17.7067 18.7153V19.4064C17.7067 19.6168 17.7367 19.8271 17.8569 19.9172C18.0071 20.0074 18.1574 20.0374 18.3677 20.0374C18.3677 20.0074 18.3677 19.9473 18.3677 19.9172C18.3677 19.8872 18.3677 19.8271 18.3677 19.767C18.3677 19.7069 18.3677 19.6168 18.3677 19.4966V18.6252C18.3677 18.4148 18.3978 18.1444 18.7583 18.1144C18.9687 18.0843 19.149 18.0242 19.149 17.7838C19.149 17.7237 19.1189 17.6336 19.1189 17.5735H18.8184Z" fill="#5D38BB"/>
<path d="M10.6454 17.5137C9.89416 17.5137 9.50354 18.0245 9.50354 18.6855C9.50354 19.2865 9.86412 19.8274 10.4951 19.8274C10.8257 19.8274 11.036 19.6771 11.066 19.6471V19.9476C11.066 20.2781 10.9458 20.5185 10.5853 20.5185C10.435 20.5185 10.3148 20.4884 10.1946 20.4283C10.1045 20.3682 10.0144 20.3382 9.92421 20.3382C9.65378 20.3382 9.59368 20.6387 9.59368 20.6387C9.77397 20.8791 10.2247 21.0594 10.5853 21.0594C11.3064 21.0594 11.697 20.6387 11.697 19.7973C11.697 19.7973 11.697 18.956 11.697 18.8358C11.7271 18.0245 11.3966 17.5137 10.6454 17.5137ZM10.6454 19.2264C10.3749 19.2264 10.1345 19.0461 10.1345 18.6555C10.1345 18.2348 10.3449 18.0245 10.6454 18.0245C10.9158 18.0245 11.0961 18.1747 11.0961 18.6255C11.0961 19.1062 10.8858 19.2264 10.6454 19.2264Z" fill="#5D38BB"/>
<path d="M32.7608 22.7721C33.3416 22.7721 33.8125 22.3012 33.8125 21.7204C33.8125 21.1396 33.3416 20.6687 32.7608 20.6687C32.18 20.6687 31.7091 21.1396 31.7091 21.7204C31.7091 22.3012 32.18 22.7721 32.7608 22.7721Z" fill="#1A1142"/>
<path d="M27.4491 32.4611C27.8116 32.296 27.9549 31.8317 27.7692 31.4239C27.5835 31.0161 27.1392 30.8193 26.7767 30.9844C26.4142 31.1494 26.2709 31.6138 26.4566 32.0216C26.6422 32.4294 27.0866 32.6261 27.4491 32.4611Z" fill="#2B1D5E"/>
<path d="M26.06 17.5137L33.2114 20.7589C33.8424 21.0293 34.1429 21.7805 33.8725 22.4115C33.602 23.0726 32.9109 23.373 32.2499 23.1627L24.858 20.5485L26.06 17.5137Z" fill="#502FB0"/>
<path d="M22.5444 18.0244L27.6827 18.5052L32.25 22.5917L30.8978 24.7251L25.0384 22.0809C23.5661 21.4198 22.6045 19.9775 22.5444 18.3549V18.0244Z" fill="#5D31C0"/>
<path d="M32.25 22.6218C32.7608 22.9223 32.881 23.6134 32.5204 24.1843C32.1598 24.7552 31.4387 25.0257 30.8978 24.7252C30.3569 24.4548 30.2067 23.7336 30.5973 23.1326C30.9879 22.5617 31.7391 22.3213 32.25 22.6218Z" fill="#5D31C0"/>
<path d="M28.1034 33.1087L25.9399 32.2373L26.3907 31.426L27.833 32.027L28.4339 32.7782C28.494 32.8383 28.494 32.9284 28.464 32.9885C28.3738 33.1087 28.2236 33.1688 28.1034 33.1087Z" fill="#2B1D5E"/>
<path d="M23.8065 20.1578C24.5034 20.1578 25.0685 19.5928 25.0685 18.8958C25.0685 18.1988 24.5034 17.6338 23.8065 17.6338C23.1095 17.6338 22.5444 18.1988 22.5444 18.8958C22.5444 19.5928 23.1095 20.1578 23.8065 20.1578Z" fill="#492CBF"/>
<path d="M26.3906 20.1578C27.0875 20.1578 27.6526 19.5928 27.6526 18.8958C27.6526 18.1988 27.0875 17.6338 26.3906 17.6338C25.6936 17.6338 25.1285 18.1988 25.1285 18.8958C25.1285 19.5928 25.6936 20.1578 26.3906 20.1578Z" fill="#492CBF"/>
<path d="M27.7127 17.6641L27.6526 18.9261V18.9862C27.6226 19.6472 27.0817 20.1881 26.3906 20.1881H23.8365C23.1755 20.1881 22.6346 19.6773 22.5745 18.9862V18.9261L22.5144 17.6641H27.7127Z" fill="#5D31C0"/>
<path d="M24.4976 5.46441L26.7812 5.37427L26.9014 7.86826C26.9314 8.49927 26.4507 8.73965 25.8197 8.7697C25.1887 8.79975 24.6478 8.58941 24.6178 7.9584L24.4976 5.46441Z" fill="#E5C1B6"/>
<path d="M26.2404 1.61792H27.7728C28.3437 1.61792 28.7644 2.09869 28.6743 2.60951L28.3738 3.90157C28.3137 4.17201 28.0733 4.35229 27.8029 4.35229H26.2404V1.61792Z" fill="#4C220F"/>
<path d="M26.2704 7.26722C24.9783 7.26722 23.9567 6.21554 23.9567 4.95352V2.36938H27.3821C27.8028 2.36938 28.1333 2.69991 28.1333 3.12059V5.94511C28.1333 6.66626 27.5324 7.26722 26.8112 7.26722H26.2704Z" fill="#E5C1B6"/>
<path d="M27.1718 0.38623H26.7511C25.9999 0.38623 25.2487 0.686711 24.7079 1.19753L24.2571 1.6182C23.5059 1.6182 22.935 2.27926 23.0552 3.03046L23.3256 4.8033H24.5877C24.7379 4.8033 24.8581 4.68311 24.8581 4.53287V4.08215C24.9182 3.72157 25.2187 3.45114 25.5793 3.45114L25.399 2.60979H26.7812C27.2319 2.60979 27.6526 2.4295 27.923 2.06892C28.554 1.28767 27.9531 0.38623 27.1718 0.38623Z" fill="#4C220F"/>
<path d="M23.8364 4.1123C23.4758 4.1123 23.1753 4.38274 23.1453 4.74331C23.1453 5.10389 23.4457 5.40437 23.8063 5.40437H24.3171V4.56303C24.3171 4.32264 24.1068 4.1123 23.8364 4.1123Z" fill="#E5C1B6"/>
<path d="M27.6226 5.58423C27.6226 5.88471 27.4122 6.15514 27.1418 6.15514C26.8713 6.15514 26.661 5.91476 26.661 5.61428L27.6226 5.58423Z" fill="white"/>
<path d="M26.5107 4.50295C26.6103 4.50295 26.691 4.40878 26.691 4.29261C26.691 4.17645 26.6103 4.08228 26.5107 4.08228C26.4112 4.08228 26.3304 4.17645 26.3304 4.29261C26.3304 4.40878 26.4112 4.50295 26.5107 4.50295Z" fill="#4C220F"/>
<path d="M27.7126 4.50295C27.8122 4.50295 27.8929 4.40878 27.8929 4.29261C27.8929 4.17645 27.8122 4.08228 27.7126 4.08228C27.6131 4.08228 27.5323 4.17645 27.5323 4.29261C27.5323 4.40878 27.6131 4.50295 27.7126 4.50295Z" fill="#4C220F"/>
<path d="M26.7511 3.60136C26.7811 3.66145 26.721 3.72155 26.691 3.72155L25.9999 3.81169C25.9999 3.72155 26.06 3.6314 26.1501 3.6314L26.6609 3.54126C26.691 3.54126 26.721 3.57131 26.7511 3.60136Z" fill="#4C220F"/>
<path d="M27.4421 3.60136C27.4121 3.66145 27.4722 3.72155 27.5022 3.72155L28.1933 3.81169C28.1933 3.72155 28.1332 3.6314 28.0431 3.6314L27.5323 3.54126C27.5022 3.57131 27.4421 3.57131 27.4421 3.60136Z" fill="#4C220F"/>
<path d="M24.3473 7.29712L24.3773 8.13846C24.3773 8.13846 24.7079 8.82957 25.399 8.91971C26.1201 8.97981 26.8112 8.61923 26.7812 8.64928L26.9615 8.4089L26.9314 8.04832C26.9314 8.04832 26.2403 7.32717 25.5192 7.38726C24.798 7.44736 24.3473 7.29712 24.3473 7.29712Z" fill="#4722AD"/>
<path d="M26.1501 31.2755L29.6357 22.5315L32.5203 24.1841L27.9831 32.1769L26.1501 31.2755Z" fill="#5D31C0"/>
<path d="M26.9914 29.1721L29.215 30.0435L28.9746 30.4041L26.8412 29.5627L26.9914 29.1721Z" fill="#BCC5D5"/>
<path d="M27.2018 28.6013L29.4854 29.5328L29.245 29.9234L27.0515 29.022L27.2018 28.6013Z" fill="#BCC5D5"/>
<path d="M30.3269 14.569C30.2968 14.3587 30.2367 14.1784 30.1165 14.0582C30.1165 14.0582 28.1935 11.6543 27.3822 10.6327C26.5108 9.52093 25.8197 8.95002 25.7896 8.91997L25.7596 8.88992C25.0084 8.10867 23.7163 8.13872 22.9351 8.98006C22.1538 9.82141 22.2139 11.1135 23.0252 11.8346L28.4338 15.801C28.6742 16.0113 29.0348 16.1015 29.4254 15.9512C29.9663 15.7409 30.387 15.1099 30.3269 14.569Z" fill="#5D38BC"/>
<path d="M27.3522 10.6327C27.0216 10.212 26.7212 9.88152 26.4808 9.61108L26 10.2721L27.262 11.3839H27.9231C27.7428 11.1135 27.5324 10.8731 27.3522 10.6327Z" fill="#4722AD"/>
<path d="M35.9459 12.9163C36.3065 12.8863 36.607 13.1567 36.637 13.5173C36.6671 13.6976 36.607 13.8779 36.4868 14.0281C36.3666 14.1784 36.2164 14.2685 36.0361 14.2685C35.8558 14.2986 35.6755 14.2385 35.5253 14.1183C35.375 13.9981 35.2849 13.8478 35.2849 13.6675C35.2548 13.4873 35.3149 13.307 35.4351 13.1567C35.5553 13.0065 35.7056 12.9163 35.8858 12.9163C35.9159 12.9163 35.9459 12.9163 35.9459 12.9163Z" fill="#E5C1B6"/>
<path d="M35.7356 12.9766L34.714 13.4273L34.9243 14.1785L36.0662 14.2085L35.7356 12.9766Z" fill="#E5C1B6"/>
<path d="M35.3448 14.659C35.3448 14.659 31.739 15.5003 30.8677 15.7106C29.9963 15.951 29.4554 15.9811 29.4253 15.9811H29.3953C28.7643 16.0712 28.1934 15.6505 28.1032 15.0496C28.0131 14.4486 28.4338 13.8477 29.0347 13.7575L35.0443 13.0664L35.3448 14.659Z" fill="#5D38BC"/>
<path d="M34.9543 14.8395L35.405 14.7194L35.1646 13.0066L34.6838 12.9766L34.9543 14.8395Z" fill="#4722AD"/>
<path d="M34.1129 13.1567L34.3834 14.9296C34.2632 14.9596 34.1129 14.9897 33.9627 15.0197L33.6923 13.2168L34.1129 13.1567Z" fill="#BDC6D7"/>
<path d="M22.1538 12.5557L21.8233 17.2732C21.7932 17.7239 22.1538 18.1146 22.6346 18.1146H27.4122C27.7728 18.1146 28.1033 17.8742 28.1935 17.5436L22.274 17.0929L22.1538 12.5557Z" fill="#4722AD"/>
<path d="M27.4423 15.3503H25.6694V15.4405H27.4423V15.3503Z" fill="#471688"/>
<path d="M27.4422 15.3503H27.3521V15.9213H27.4422V15.3503Z" fill="#471688"/>
<path d="M23.3557 0.806865C23.3557 0.806865 22.5144 1.49797 22.3341 2.5797C22.1538 3.66143 22.1538 5.31408 22.7848 6.18547C23.6862 7.50759 27.4422 8.22874 28.2235 7.89821C29.0047 7.56768 29.3954 6.87658 29.4555 6.516C29.5156 6.15542 29.4254 5.85494 29.4254 5.85494C29.5757 4.86336 29.5456 4.9535 29.4555 4.02201C29.3653 3.12057 29.2151 2.94028 29.2151 2.94028C29.2151 2.94028 28.8545 1.34773 27.4122 0.476336C25.4591 -0.635443 23.3557 0.806865 23.3557 0.806865Z" fill="#4722AD"/>
<path d="M29.5456 5.76465C29.5456 5.76465 29.9663 5.91489 29.9963 6.36561C30.0264 6.81633 29.6958 7.71777 29.2151 7.89806C28.8845 8.01825 27.923 8.0483 27.2018 7.9882C26.3906 7.92811 25.7295 7.68772 25.7295 7.68772C25.7295 7.68772 27.4422 7.77787 27.6826 7.56753C27.923 7.3572 27.7427 6.24542 27.7427 6.24542C27.7427 6.24542 28.4639 6.30551 29.0348 6.21537C29.4254 6.21537 29.7259 6.06513 29.5456 5.76465Z" fill="#5D38BC"/>
<path d="M29.2151 2.88037C29.2451 2.94047 29.2451 2.97052 29.2451 2.97052C29.2451 2.97052 29.3653 3.1508 29.4855 4.05225C29.5756 4.95369 29.5756 4.98374 29.6357 5.76499C29.6357 5.76499 29.6958 6.03542 29.5155 6.09552C28.8244 6.396 27.8629 6.30585 26.9615 6.12556C26.9314 5.07388 27.0216 3.99215 27.1117 2.94047C28.0732 3.00056 28.7944 2.94047 29.2151 2.88037Z" fill="#1C1347"/>
<path d="M24.3172 3.36116C24.6177 2.94048 25.2186 2.7001 25.9698 2.88039C26.1802 2.91044 26.3905 2.91044 26.6309 2.94048C26.7811 2.97053 26.9314 2.97053 27.0816 2.97053C27.1718 3.60154 27.1417 5.0739 26.9314 6.15563C26.3304 6.03544 25.7595 5.85515 25.3388 5.70491C24.828 5.43447 24.4674 5.0739 24.2871 4.74337C24.0167 4.23255 24.0768 3.72173 24.3172 3.36116Z" fill="#0E0A30"/>
<path d="M26.7511 0.0556966C26.7511 0.0556966 28.3136 0.266033 29.6658 1.34776C30.6874 2.15906 30.7475 2.60978 30.447 2.97036C30.1466 3.33094 27.3821 3.00041 26.661 2.94031C25.9398 2.88022 25.9398 2.88022 25.9398 2.88022C25.9398 2.88022 28.0732 3.15065 27.6225 2.12901C27.322 1.43791 26.3906 0.987187 25.6093 0.716754C24.8281 0.446322 23.9567 0.506418 23.9567 0.506418C23.9567 0.506418 24.3172 0.296081 24.8882 0.175889C25.3389 0.0256485 26.03 -0.0644957 26.7511 0.0556966Z" fill="#5D38BC"/>
<path d="M28.4939 4.47258C28.4939 4.53268 28.554 4.59277 28.6442 4.59277C28.7043 4.59277 28.7644 4.53268 28.7644 4.44253L28.7043 3.54109C28.7043 3.48099 28.6442 3.4209 28.554 3.4209C28.4939 3.4209 28.4338 3.48099 28.4338 3.57114L28.4939 4.47258Z" fill="#6217AF"/>
<path d="M28.9146 5.34418C28.9146 5.40428 28.9747 5.46437 29.0649 5.46437C29.1249 5.46437 29.185 5.40428 29.185 5.31413L29.0949 3.60139C29.0949 3.5413 29.0348 3.4812 28.9447 3.4812C28.8846 3.4812 28.8245 3.5413 28.8245 3.63144L28.9146 5.34418Z" fill="#6217AF"/>
<path d="M24.3173 0.296002C24.3173 0.296002 25.6995 0.205858 27.0516 0.596483C28.4038 0.987108 29.3954 1.9186 29.4254 2.42942C29.4555 2.94023 28.9146 3.09047 28.9146 3.09047C28.9146 3.09047 29.5456 3.15057 29.756 3.06043C29.9663 3.00033 30.5673 1.8585 28.6141 0.896963C26.631 -0.0645749 25.0985 0.0856655 25.0985 0.0856655C25.0985 0.0856655 24.4375 0.235906 24.3173 0.296002Z" fill="#FDD030"/>
<path d="M30.0972 2.69886C30.2991 2.45667 30.2147 2.05361 29.9088 1.79859C29.6029 1.54357 29.1912 1.53316 28.9893 1.77535C28.7874 2.01754 28.8718 2.4206 29.1777 2.67562C29.4836 2.93064 29.8953 2.94105 30.0972 2.69886Z" fill="#FDD030"/>
<path d="M28.7043 6.69631C28.6742 6.69631 28.6442 6.72636 28.6442 6.7564C28.6442 6.78645 28.6742 6.8165 28.7043 6.8165L29.1249 6.78645C29.155 6.78645 29.185 6.7564 29.185 6.72636C29.185 6.69631 29.155 6.66626 29.1249 6.66626L28.7043 6.69631Z" fill="#2B1D5E"/>
<path d="M38.2295 13.1866C38.1995 13.1566 38.1995 13.1566 38.1694 13.1866C38.1394 13.2166 38.1995 13.2467 38.1995 13.2467C38.1995 13.2467 38.2295 13.2467 38.2295 13.2166C38.2596 13.2166 38.2295 13.2166 38.2295 13.1866Z" fill="#FDCE2F"/>
<path d="M38.0494 13.3069C38.0193 13.3369 38.0494 13.3369 38.1095 13.397C38.1696 13.4271 38.1996 13.4271 38.1996 13.4271C38.1996 13.397 38.1996 13.397 38.1395 13.3369C38.1095 13.3069 38.0794 13.3069 38.0494 13.3069Z" fill="#FDCE2F"/>
<path d="M37.4483 12.6158C37.238 12.736 37.4784 13.1867 38.0192 13.5473C38.5901 13.9379 39.0709 13.998 39.131 13.7576C39.1611 13.5473 38.8906 13.1867 38.47 12.9163C38.0793 12.6759 37.6286 12.5257 37.4483 12.6158ZM38.47 13.5773C38.4399 13.6074 38.4099 13.6074 38.3798 13.6074C38.3798 13.6074 38.3498 13.5773 38.3498 13.5473H38.3798C38.4099 13.5473 38.4099 13.5473 38.4099 13.5172C38.4399 13.4872 38.3798 13.4571 38.3498 13.4271L38.3197 13.397C38.3197 13.397 38.3498 13.4271 38.3197 13.4571C38.2897 13.4872 38.1995 13.4571 38.1094 13.397C38.0192 13.337 37.9591 13.2769 37.9892 13.2168C38.0192 13.1867 38.1094 13.2168 38.1995 13.2769C38.2296 13.3069 38.3197 13.367 38.3197 13.367C38.4399 13.4872 38.5 13.5473 38.47 13.5773ZM38.3498 13.3069C38.3498 13.3069 38.3498 13.2769 38.3498 13.3069C38.3498 13.2769 38.3498 13.2769 38.3498 13.2769L38.3798 13.3069C38.4099 13.337 38.4099 13.367 38.4099 13.397C38.3798 13.4271 38.3197 13.4271 38.1995 13.337C38.0793 13.2468 38.0493 13.1867 38.0793 13.1567C38.1094 13.1266 38.1695 13.1266 38.2296 13.1867C38.2596 13.2168 38.3197 13.2468 38.2897 13.3069C38.2596 13.337 38.2596 13.337 38.2596 13.337C38.3197 13.337 38.3498 13.3069 38.3498 13.3069ZM38.5 13.2468C38.47 13.2769 38.4099 13.2468 38.3197 13.1867L38.1094 13.0365C38.0793 13.0064 38.0793 13.0064 38.0493 13.0064C38.0493 12.9764 38.0493 12.9764 38.0493 12.9764C38.0493 12.9764 38.0493 12.9764 38.0793 12.9764C38.0793 12.9764 38.0793 12.9764 38.1094 13.0064L38.1394 13.0365L38.1695 13.0665L38.1995 13.0365C38.2296 13.0665 38.2296 13.0665 38.2296 13.0665C38.2296 13.0966 38.2296 13.0966 38.2296 13.0966L38.3197 13.1567C38.3498 13.1867 38.3498 13.1867 38.3798 13.1867C38.4099 13.1867 38.4099 13.2168 38.4399 13.1867V13.1567C38.4399 13.1567 38.4399 13.1567 38.47 13.1867C38.5 13.2168 38.5 13.2168 38.5 13.2468ZM38.1394 12.9463C38.1094 12.9163 38.1094 12.9163 38.1394 12.9463C38.1394 12.9163 38.1394 12.9163 38.1394 12.9463C38.1695 12.9163 38.1695 12.9463 38.1695 12.9463C38.1695 12.9463 38.1995 12.9463 38.1995 12.9764C38.2296 13.0064 38.2296 13.0064 38.2296 13.0064H38.1995C38.1695 12.9764 38.1695 12.9764 38.1394 12.9463ZM38.53 13.1867C38.53 13.2168 38.5 13.1867 38.4399 13.1567L38.2897 13.0665C38.2596 13.0365 38.2596 13.0365 38.2296 13.0365C38.2296 13.0064 38.2296 13.0064 38.2296 13.0064C38.2296 13.0064 38.2296 13.0064 38.2596 13.0064C38.2596 13.0064 38.2596 13.0064 38.2897 13.0365L38.3197 13.0665L38.47 13.1567C38.5 13.1867 38.5 13.1867 38.5 13.1867C38.5 13.1867 38.5 13.1867 38.53 13.2168C38.53 13.1567 38.53 13.1567 38.53 13.1867ZM38.3498 12.9764C38.3498 13.0064 38.3798 13.0064 38.3798 13.0365L38.47 13.0966C38.5 13.0966 38.5 13.1266 38.5 13.1266C38.5 13.1266 38.53 13.1266 38.53 13.1567H38.5601C38.5601 13.1567 38.5601 13.1867 38.53 13.1867C38.5 13.1867 38.5 13.1567 38.47 13.1567L38.3798 13.0966C38.3498 13.0665 38.3197 13.0665 38.3197 13.0365C38.2897 13.0064 38.2897 13.0064 38.2897 13.0064V12.9764V12.9463C38.2897 12.9463 38.3197 12.9463 38.3197 12.9764C38.3498 12.9463 38.3498 12.9463 38.3498 12.9764Z" fill="#FDCE2F"/>
<path d="M38.2296 13.1568C38.1695 13.1267 38.1094 13.0967 38.0793 13.1267C38.0493 13.1568 38.0793 13.2168 38.1995 13.307C38.2897 13.3671 38.3798 13.3971 38.4098 13.3671C38.4399 13.337 38.4098 13.307 38.3798 13.2769L38.3497 13.2469V13.2769V13.307C38.3497 13.307 38.3197 13.337 38.2596 13.2769C38.2596 13.2769 38.2897 13.2769 38.2897 13.2469C38.3197 13.2168 38.2897 13.1868 38.2296 13.1568ZM38.1695 13.1868C38.1695 13.1568 38.1995 13.1868 38.2296 13.1868C38.2596 13.2168 38.2596 13.2168 38.2596 13.2168C38.2296 13.2469 38.2296 13.2469 38.2296 13.2469C38.1695 13.2168 38.1394 13.1868 38.1695 13.1868Z" fill="#5D38BB"/>
<path d="M38.4401 13.1864C38.4401 13.2165 38.41 13.1864 38.38 13.1864C38.3499 13.1864 38.3499 13.1564 38.3199 13.1564L38.2297 13.0963V13.0662C38.2297 13.0362 38.1997 13.0362 38.1997 13.0362L38.1696 13.0662L38.1396 13.0362C38.1095 13.0362 38.1095 13.0061 38.1095 13.0061C38.1095 13.0061 38.0795 13.0061 38.0795 12.9761C38.0795 12.9761 38.0795 12.9761 38.0494 12.9761V13.0061C38.0494 13.0362 38.0795 13.0362 38.1095 13.0362L38.3199 13.1864C38.41 13.2465 38.4701 13.2766 38.5002 13.2465C38.5002 13.2165 38.4701 13.1864 38.4401 13.1864C38.4401 13.1564 38.4401 13.1564 38.4401 13.1564C38.4401 13.1864 38.4401 13.1864 38.4401 13.1864Z" fill="#5D38BB"/>
<path d="M38.1995 12.9764V12.9463L38.1695 12.9163C38.1695 12.9163 38.1394 12.9163 38.1394 12.8862H38.1094C38.1094 12.8862 38.1094 12.8862 38.1394 12.9163L38.1695 12.9463C38.1695 12.9463 38.1695 12.9463 38.1995 12.9764C38.1695 12.9764 38.1995 12.9764 38.1995 12.9764Z" fill="#5D38BB"/>
<path d="M38.47 13.1266C38.47 13.1266 38.44 13.1266 38.44 13.0965L38.2897 13.0064C38.2597 13.0064 38.2597 12.9763 38.2597 12.9763C38.2597 12.9763 38.2296 12.9763 38.2296 12.9463C38.2296 12.9463 38.2296 12.9463 38.1996 12.9463V12.9763C38.1996 13.0064 38.2296 13.0064 38.2597 13.0064L38.4099 13.0965C38.47 13.1266 38.5001 13.1266 38.5001 13.1266C38.5301 13.1867 38.5301 13.1566 38.47 13.1266C38.5001 13.1266 38.47 13.1266 38.47 13.1266Z" fill="#5D38BB"/>
<path d="M38.2897 12.9163C38.2897 12.9463 38.2897 12.9463 38.2897 12.9764L38.3197 13.0064C38.3498 13.0365 38.3498 13.0365 38.3798 13.0665L38.47 13.1266C38.5 13.1566 38.53 13.1566 38.53 13.1566C38.5601 13.1566 38.5601 13.1566 38.5601 13.1266C38.5601 13.1266 38.5601 13.1266 38.53 13.1266C38.53 13.1266 38.53 13.1266 38.5 13.0965L38.47 13.0665L38.3798 13.0064C38.3498 12.9764 38.3197 12.9764 38.3498 12.9463C38.3498 12.9463 38.3498 12.9163 38.3197 12.9163C38.3498 12.9163 38.3197 12.9163 38.2897 12.9163Z" fill="#5D38BB"/>
<path d="M37.9891 13.2471C37.9591 13.2772 38.0192 13.3673 38.1093 13.4274C38.1995 13.4875 38.2896 13.5175 38.3197 13.4875C38.3497 13.4574 38.3197 13.4574 38.3197 13.4274L38.3497 13.4574C38.3798 13.4875 38.4098 13.5175 38.4098 13.5476L38.3798 13.5776H38.3497C38.3497 13.6077 38.3798 13.6377 38.3798 13.6377C38.4098 13.6678 38.4699 13.6377 38.4699 13.6077C38.4999 13.5776 38.4398 13.5175 38.3497 13.4274C38.3497 13.4274 38.2295 13.3673 38.2295 13.3373C38.1093 13.2471 38.0192 13.2171 37.9891 13.2471ZM38.2295 13.4274C38.1995 13.4574 38.1995 13.4574 38.1394 13.3973C38.0793 13.3673 38.0492 13.3373 38.0793 13.3072C38.1093 13.2772 38.1093 13.3072 38.1694 13.3373C38.2295 13.3973 38.2295 13.3973 38.2295 13.4274Z" fill="#5D38BB"/>
</svg>
