<svg xmlns="http://www.w3.org/2000/svg" width="122" height="24" viewBox="0 0 122 24" fill="none">
    <path d="M20.6428 7.68801C22.1529 7.68801 22.8768 8.51172 22.8768 9.26055C22.8768 10.1467 22.078 10.7208 20.6303 10.7208C18.5336 10.7208 17.7348 10.4212 17.7348 10.4212C17.7348 9.14823 18.7333 7.68801 20.6428 7.68801ZM26.0219 9.24807C26.0219 6.51484 23.7754 4.71765 20.5055 4.71765C17.3979 4.71765 14.1404 6.95166 14.1404 11.9314C14.1404 15.7379 16.4369 18.546 20.4181 18.546C22.6521 18.546 25.1108 17.273 25.7348 16.3994C25.7348 16.3994 25.3105 14.7644 24.1498 14.7644C23.5383 14.7644 23.089 15.0016 22.5897 15.2137C21.9783 15.4754 21.3204 15.6112 20.6553 15.6131C19.5445 15.6131 17.635 15.1638 17.635 12.7801C17.635 12.7801 18.5336 13.0421 20.5804 13.0421C24.961 13.0297 26.0219 11.1825 26.0219 9.24807Z" fill="#FFD10D"/>
    <path d="M34.1966 15.6256C32.6864 15.6256 31.9002 14.3525 31.7629 13.8034C31.5911 13.1094 31.5072 12.3966 31.5133 11.6817L31.5382 7.58812H32.6365C33.5226 7.58812 34.2091 7.32603 34.6833 6.81433C35.1576 6.30263 35.4072 5.60372 35.4072 4.73009H31.5382L31.5133 2.90794C31.5133 2.33383 31.5133 1.85957 31.5258 1.51012C31.5382 1.16067 31.5507 0.873615 31.5632 0.661447C31.5728 0.477297 31.5936 0.293906 31.6256 0.112305C30.4524 0.112305 29.5538 0.361915 28.9423 0.861134C28.3307 1.36035 28.0187 2.18407 28.0187 3.34475L27.9938 12.4306C27.9938 16.1497 29.766 18.5834 33.1482 18.5834C34.8206 18.5834 36.0437 17.6848 36.0437 16.3245C36.0558 16.0249 36.0178 15.7254 35.9314 15.4384C35.3624 15.5685 34.7802 15.6314 34.1966 15.6256Z" fill="#FFD10D"/>
    <path d="M42.6833 15.8004C41.9345 15.8004 41.4477 15.2512 41.4477 14.3651V7.81284C41.4477 7.23874 41.4477 6.76448 41.4602 6.41503C41.4727 6.06557 41.4852 5.77852 41.4976 5.56635C41.5101 5.35418 41.5351 5.1545 41.56 5.01721C40.3619 5.01721 39.4633 5.26682 38.8518 5.76604C38.2402 6.26526 37.9282 7.08897 37.9282 8.24966L37.9033 14.9267C37.9033 17.3105 39.4384 18.6334 41.3728 18.5585C42.5959 18.5086 43.6443 17.9345 43.6443 16.649C43.6445 16.3267 43.6152 16.005 43.5569 15.688C43.2717 15.7626 42.9781 15.8003 42.6833 15.8004Z" fill="#FFD10D"/>
    <path d="M38.7893 3.70672C39.0641 3.84565 39.3676 3.91831 39.6755 3.91889C40.3993 3.91889 40.9734 3.56943 41.3978 2.883C41.5716 2.57456 41.6619 2.22612 41.6599 1.87208C41.6628 1.54088 41.5812 1.2144 41.4227 0.923567C41.2616 0.627181 41.0133 0.38753 40.7113 0.23714C40.4513 0.0809574 40.1535 -0.00105053 39.8502 1.01601e-05C39.5054 0.00423101 39.1686 0.103565 38.8767 0.287062C38.5622 0.474682 38.307 0.747205 38.1404 1.07333C37.9636 1.38058 37.8731 1.72983 37.8783 2.08425C37.8737 2.41167 37.9555 2.73451 38.1154 3.02029C38.2726 3.30674 38.5058 3.54427 38.7893 3.70672Z" fill="#FFD10D"/>
    <path d="M51.3573 5.04211C50.614 5.04496 49.8733 5.12866 49.1482 5.29172C48.4172 5.45054 47.7308 5.77031 47.1388 6.22776C46.5008 6.738 45.9992 7.39833 45.6786 8.14976C45.3042 8.97347 45.117 10.0218 45.117 11.3073V15.064C45.117 16.2246 45.2668 17.298 45.9657 17.8221C46.727 18.3962 47.6131 18.4212 48.7863 18.4212C48.7613 18.3089 48.7488 17.9719 48.7239 17.7473C48.6957 17.4653 48.6832 17.1819 48.6864 16.8986C48.6739 16.5366 48.6739 16.0749 48.6739 15.5008V10.6833C48.6739 9.54757 48.8612 8.08735 50.858 7.92511C51.9813 7.82526 52.9797 7.40093 52.9797 6.17784C52.9782 5.79067 52.9106 5.40659 52.78 5.04211H51.3573Z" fill="#FFD10D"/>
    <path d="M6.21529 14.2403C4.68019 14.2403 3.50702 13.2668 3.50702 11.1326C3.50702 8.86118 4.70515 7.67553 6.21529 7.67553C7.70046 7.67553 8.78627 8.57412 8.78627 10.9579C8.78627 13.4041 7.6131 14.2403 6.21529 14.2403ZM6.24025 4.71765C2.14665 4.71765 0 7.58817 0 11.0827C0 14.3152 1.97192 17.3354 5.55382 17.3354C7.41341 17.3354 8.48674 16.5492 8.76131 16.312V17.9345C8.76131 19.7941 8.03744 21.0297 6.16536 21.0297C5.26677 21.0297 4.59282 20.78 3.9688 20.493C3.41966 20.2309 3.0078 19.9189 2.45866 19.9189C1.06084 19.9189 0.673947 21.6412 0.686427 21.6537C1.73479 23.0016 4.13104 24 6.1404 24C10.0967 24 12.2808 21.6911 12.2808 17.1108V11.7566C12.2683 7.57568 10.4212 4.71765 6.24025 4.71765Z" fill="#FFD10D"/>
    <path d="M71.7753 3.70672C72.0501 3.84565 72.3535 3.91831 72.6614 3.91889C73.3853 3.91889 73.9594 3.56943 74.3837 2.883C74.5575 2.57456 74.6478 2.22612 74.6458 1.87208C74.6488 1.54088 74.5672 1.2144 74.4087 0.923567C74.2476 0.627181 73.9992 0.38753 73.6973 0.23714C73.4373 0.0809574 73.1395 -0.00105053 72.8361 1.01601e-05C72.4914 0.00423101 72.1545 0.103565 71.8627 0.287062C71.5482 0.474682 71.2929 0.747205 71.1263 1.07333C70.9496 1.38058 70.859 1.72983 70.8642 2.08425C70.8597 2.41167 70.9415 2.73451 71.1014 3.02029C71.2658 3.30129 71.4974 3.53713 71.7753 3.70672Z" fill="white"/>
    <path d="M77.0546 3.70672C77.3294 3.84565 77.6328 3.91831 77.9407 3.91889C78.6646 3.91889 79.2387 3.56943 79.663 2.883C79.8368 2.57456 79.9272 2.22612 79.9251 1.87208C79.9281 1.54088 79.8465 1.2144 79.688 0.923567C79.5269 0.627181 79.2785 0.38753 78.9766 0.23714C78.7166 0.0809574 78.4188 -0.00105053 78.1154 1.01601e-05C77.7707 0.00423101 77.4338 0.103565 77.142 0.287062C76.8274 0.474682 76.5722 0.747205 76.4056 1.07333C76.2289 1.38058 76.1383 1.72983 76.1435 2.08425C76.139 2.41167 76.2208 2.73451 76.3807 3.02029C76.5379 3.30674 76.7711 3.54427 77.0546 3.70672Z" fill="white"/>
    <path d="M98.0093 3.70672C98.2841 3.84565 98.5875 3.91831 98.8954 3.91889C99.6193 3.91889 100.193 3.56943 100.618 2.883C100.792 2.57456 100.882 2.22612 100.88 1.87208C100.883 1.54088 100.801 1.2144 100.643 0.923567C100.482 0.627181 100.233 0.38753 99.9313 0.23714C99.6713 0.0809574 99.3735 -0.00105053 99.0702 1.01601e-05C98.7254 0.00423101 98.3885 0.103565 98.0967 0.287062C97.7822 0.474682 97.5269 0.747205 97.3603 1.07333C97.1836 1.38058 97.093 1.72983 97.0982 2.08425C97.0937 2.41167 97.1755 2.73451 97.3354 3.02029C97.4926 3.30674 97.7258 3.54427 98.0093 3.70672Z" fill="white"/>
    <path d="M103.276 3.70672C103.551 3.84565 103.854 3.91831 104.162 3.91889C104.886 3.91889 105.46 3.56943 105.885 2.883C106.058 2.57456 106.149 2.22612 106.147 1.87208C106.15 1.54088 106.068 1.2144 105.909 0.923567C105.748 0.627181 105.5 0.38753 105.198 0.23714C104.938 0.0809574 104.64 -0.00105053 104.337 1.01601e-05C103.992 0.00423101 103.655 0.103565 103.363 0.287062C103.049 0.474682 102.794 0.747205 102.627 1.07333C102.45 1.38058 102.36 1.72983 102.365 2.08425C102.36 2.41115 102.441 2.73362 102.601 3.01869C102.761 3.30375 102.994 3.54119 103.276 3.70672Z" fill="white"/>
    <path d="M61.1419 7.63809C59.482 7.63809 58.234 9.27304 58.234 11.3323C58.234 14.3651 59.5319 15.6131 61.4914 15.6131C63.1263 15.6131 64.312 14.0406 64.312 11.9189C64.2995 8.71141 63.1513 7.63809 61.1419 7.63809ZM61.1419 18.5336C57.7597 18.5336 54.9266 15.7629 54.9266 11.8066V0.611572H56.0499C57.3229 0.611572 58.209 1.34792 58.209 2.88302V6.72702C58.8705 5.7785 59.9937 4.71765 61.7784 4.71765C65.1357 4.71765 67.7067 7.46336 67.7067 11.3448C67.7067 15.3261 65.1606 18.5336 61.1419 18.5336Z" fill="white"/>
    <path d="M69.5912 12.3183V7.36354C69.5912 5.81596 70.4025 5.01721 72.312 5.01721H72.8986V12.4306C72.8986 14.6771 73.8471 15.6132 75.195 15.6132C76.6927 15.6132 77.8658 14.6397 77.8658 12.206V7.36354C77.8658 5.81596 78.702 5.01721 80.5866 5.01721H81.1981V12.5305C81.1981 16.3745 78.6271 18.5211 75.3697 18.5211C71.5257 18.5336 69.5912 16.4244 69.5912 12.3183Z" fill="white"/>
    <path d="M95.7753 12.3183V7.36354C95.7753 5.81596 96.5865 5.01721 98.496 5.01721H99.0826V12.4306C99.0826 14.6771 100.031 15.6132 101.379 15.6132C102.877 15.6132 104.05 14.6397 104.05 12.206V7.36354C104.05 5.81596 104.886 5.01721 106.771 5.01721H107.382V12.5305C107.382 16.3745 104.811 18.5211 101.554 18.5211C97.7097 18.5336 95.7753 16.4244 95.7753 12.3183Z" fill="white"/>
    <path d="M85.3415 22.5147C84.1184 22.5147 83.0451 21.7035 83.0451 20.4804V19.8439L84.9047 19.7191C86.1028 19.6442 86.5147 19.1575 87.2261 17.2979C85.4913 14.677 82.9952 8.12473 82.5459 5.01709H84.2807C84.73 5.00994 85.1675 5.16106 85.5166 5.44399C85.8657 5.72692 86.1041 6.12363 86.1902 6.56467C86.652 9.11069 87.6379 11.8564 88.8361 14.1778C89.9094 11.7066 91.1075 7.71287 91.407 5.02957H92.8298C93.8782 5.02957 94.3774 5.49135 94.3774 6.57715C94.3774 7.97497 92.081 13.9906 91.4695 15.4133C89.0233 21.1668 87.7253 22.5147 85.3415 22.5147Z" fill="white"/>
    <path d="M112.636 2.79566V10.6709C113.909 9.01094 115.157 7.32608 116.668 5.87834C117.454 5.14199 118.24 5.01719 119.289 5.01719H121.173V5.14199C120.237 5.92826 117.179 9.39784 115.819 11.1326C116.867 12.4306 117.903 13.7785 119.076 14.9766C120.274 16.1747 120.811 16.4244 121.622 16.6864C121.285 17.7348 120.736 18.2964 119.401 18.2964C118.592 18.2766 117.82 17.951 117.242 17.3854C115.557 15.6506 114.084 13.6911 112.636 11.7567V18.1966L111.588 18.2215C110.065 18.2465 109.342 17.4353 109.342 15.9002V0.611572H110.39C111.975 0.611572 112.636 1.52265 112.636 2.79566Z" fill="white"/>
</svg>