<svg xmlns="http://www.w3.org/2000/svg" width="131" height="24" viewBox="0 0 131 24" fill="none">
    <path d="M26.0384 9.24019C26.0384 6.49999 23.8012 4.71289 20.5182 4.71289C17.4074 4.71289 14.1509 6.95007 14.1509 11.9275C14.1509 15.7267 16.4542 18.5331 20.4256 18.5331C22.6627 18.5331 25.125 17.2623 25.7471 16.3886C25.7471 16.3886 25.3235 14.7471 24.1586 14.7471C23.5497 14.7471 23.0996 14.9854 22.5965 15.1839C22.0803 15.3957 21.4581 15.5943 20.6638 15.5943C19.5519 15.5943 17.6456 15.1575 17.6456 12.7614C17.6456 12.7614 18.5458 13.0262 20.5844 13.0262C24.9793 13.0394 26.0384 11.1861 26.0384 9.24019ZM20.6506 7.67814C22.1597 7.67814 22.8878 8.49888 22.8878 9.25343C22.8878 10.1404 22.0935 10.7096 20.6506 10.7096C18.5458 10.7096 17.7515 10.4184 17.7515 10.4051C17.7383 9.14753 18.7444 7.67814 20.6506 7.67814Z"
          fill="#FFD300"/>
    <path d="M34.206 15.6206C32.6969 15.6206 31.9159 14.3498 31.7703 13.7938C31.6246 13.2511 31.532 12.47 31.532 11.6625L31.5585 7.55885H32.6572C33.5441 7.55885 34.2192 7.2941 34.709 6.77783C35.1856 6.26155 35.4371 5.55995 35.4371 4.6995H31.5717L31.5452 2.88593C31.5452 2.30347 31.5452 1.84015 31.5585 1.48273C31.5717 1.12532 31.5849 0.847325 31.5982 0.635521C31.6114 0.41048 31.6379 0.225151 31.6511 0.0927734C30.473 0.0927734 29.586 0.344292 28.9639 0.847326C28.3417 1.35036 28.0372 2.1711 28.0372 3.33602L28.0107 12.4171C28.0107 16.1369 29.7846 18.5594 33.1735 18.5594C34.8414 18.5594 36.0593 17.6592 36.0593 16.2958C36.0593 15.8192 35.9931 15.5677 35.9534 15.4088C35.6489 15.4883 35.1062 15.6206 34.206 15.6206Z"
          fill="#FFD300"/>
    <path d="M42.6917 15.7922C41.9372 15.7922 41.4606 15.2494 41.4606 14.3493V7.79658C41.4606 7.21412 41.4606 6.7508 41.4738 6.39338C41.4871 6.03596 41.5003 5.75797 41.5136 5.54617C41.5268 5.32112 41.5533 5.1358 41.5665 5.00342C40.3751 5.00342 39.4749 5.25493 38.8528 5.75797C38.2306 6.261 37.9261 7.08174 37.9261 8.24666L37.8997 14.9185C37.8997 17.3013 39.4352 18.625 41.3679 18.5456C42.5858 18.4927 43.6448 17.9234 43.6448 16.6394C43.6448 16.1099 43.5522 15.673 43.5522 15.673C43.2874 15.7392 43.0888 15.7922 42.6917 15.7922Z"
          fill="#FFD300"/>
    <path d="M51.3625 5.03027C50.6344 5.03027 49.8931 5.1097 49.1518 5.28179C48.4105 5.44065 47.7353 5.75835 47.1396 6.22167C46.5439 6.68499 46.0541 7.3204 45.6835 8.14114C45.3128 8.96188 45.1143 10.0077 45.1143 11.305V15.0512C45.1143 16.2029 45.2599 17.2752 45.9615 17.8047C46.716 18.3871 47.603 18.4136 48.7811 18.4136C48.7679 18.2945 48.7414 17.9635 48.7282 17.7385C48.7149 17.5267 48.6884 17.2487 48.6884 16.8913C48.6752 16.5339 48.6752 16.0705 48.6752 15.4881V10.6828C48.6752 9.54434 48.8605 8.08819 50.8594 7.9161C51.9846 7.82344 52.9775 7.38659 52.9775 6.16872C52.9775 5.89073 52.9113 5.34798 52.7657 5.03027H51.3625Z"
          fill="#FFD300"/>
    <path d="M6.24821 4.71289C2.14451 4.71289 0 7.58548 0 11.0802C0 14.3102 1.97242 17.3417 5.55985 17.3417C7.41313 17.3417 8.49862 16.5474 8.76338 16.3224V17.9374C8.76338 19.7907 8.0353 21.035 6.16878 21.035C5.26862 21.035 4.59349 20.7835 3.98456 20.4923C3.42857 20.2275 3.0182 19.923 2.47546 19.923C1.08549 19.923 0.7016 21.6439 0.7016 21.6572C1.74738 23.0074 4.14341 24.0003 6.15554 24.0003C10.1136 24.0003 12.2978 21.6969 12.2978 17.1166C12.2978 17.1166 12.2978 12.5099 12.2978 11.7554C12.2846 7.57224 10.4313 4.71289 6.24821 4.71289ZM6.23497 14.2308C4.69939 14.2308 3.52124 13.2645 3.52124 11.1332C3.52124 8.8563 4.72587 7.67814 6.23497 7.67814C7.7176 7.67814 8.80309 8.57831 8.80309 10.9611C8.80309 13.3968 7.62493 14.2308 6.23497 14.2308Z"
          fill="#FFD300"/>
    <path d="M38.7997 3.69333C39.0777 3.82571 39.3689 3.90513 39.6866 3.90513C40.4147 3.90513 40.9839 3.56095 41.4075 2.87259C41.5796 2.55488 41.6723 2.22394 41.6723 1.86652C41.6723 1.53558 41.5929 1.21787 41.434 0.913406C41.2751 0.622176 41.0369 0.397134 40.7192 0.238282C40.4412 0.0794288 40.1632 0 39.8587 0C39.5278 0 39.1968 0.0926649 38.8791 0.277993C38.5614 0.463321 38.3231 0.728075 38.1378 1.05902C37.9657 1.35025 37.873 1.69443 37.873 2.06509C37.873 2.39603 37.9525 2.71374 38.1113 2.99173C38.2702 3.28296 38.5085 3.52124 38.7997 3.69333Z"
          fill="#FFD300"/>
    <path d="M81.9418 9.42932C81.9418 6.66264 79.6782 4.8623 76.382 4.8623C73.2446 4.8623 69.9617 7.11272 69.9617 12.1431C69.9617 15.982 72.2783 18.8149 76.2893 18.8149C78.553 18.8149 81.0284 17.5308 81.6506 16.6439C81.6506 16.6439 81.227 14.9892 80.0488 14.9892C79.4266 14.9892 78.9766 15.2274 78.4735 15.4392C77.944 15.651 77.3218 15.8496 76.5143 15.8496C75.3891 15.8496 73.4697 15.3995 73.4697 12.9903C73.4697 12.9903 74.3698 13.255 76.4349 13.255C80.8696 13.255 81.9418 11.3753 81.9418 9.42932ZM76.5143 7.85403C78.0367 7.85403 78.7648 8.688 78.7648 9.44256C78.7648 10.3427 77.9573 10.9119 76.5011 10.9119C74.3831 10.9119 73.5756 10.6207 73.5756 10.6075C73.5756 9.32342 74.5816 7.85403 76.5143 7.85403Z"
          fill="#F4F2FD"/>
    <path d="M67.3012 7.93373C67.0496 8.9398 66.7319 9.93263 66.3481 10.9255C65.9642 11.9183 65.5803 12.8449 65.1831 13.7186C64.786 14.5791 64.4286 15.3601 64.0844 16.0485C63.7402 16.7368 63.4755 17.2531 63.3034 17.6237C62.7739 18.7092 62.2841 19.6094 61.8472 20.3375C61.4104 21.0656 60.9868 21.6348 60.5896 22.0716C60.1793 22.5085 59.7689 22.8129 59.3585 23.0115C58.9482 23.1968 58.4981 23.3027 58.0215 23.3027C57.5052 23.3027 57.0816 23.1836 56.7772 22.9453C56.4595 22.707 56.3006 22.4423 56.3006 22.1643V21.3171H57.3729C57.6376 21.3171 57.8891 21.2906 58.1142 21.2244C58.3392 21.1715 58.5775 21.0391 58.829 20.8273C59.0805 20.6155 59.3453 20.2978 59.6365 19.8742C59.9278 19.4506 60.2587 18.8681 60.6426 18.14C60.1263 17.3458 59.61 16.4324 59.0805 15.4263C58.551 14.4202 58.0612 13.3612 57.5979 12.2625C57.1346 11.1637 56.711 10.0385 56.3536 8.90009C55.9829 7.76165 55.7049 6.63643 55.5063 5.5377H56.8036C57.267 5.5377 57.5979 5.68332 57.7965 5.97455C57.9818 6.26578 58.1274 6.57025 58.2068 6.88795C58.3525 7.54984 58.551 8.27791 58.7893 9.0457C59.0276 9.82673 59.3056 10.6078 59.61 11.402C59.9145 12.1963 60.2587 12.9905 60.6294 13.7716C61 14.5526 61.3971 15.2939 61.8207 15.969C62.1649 15.3469 62.5488 14.5923 62.946 13.7054C63.3431 12.8185 63.727 11.8786 64.0844 10.9122C64.4418 9.94587 64.7595 8.99275 65.0375 8.03964C65.3155 7.08652 65.5141 6.25254 65.62 5.51123H66.5201C66.8246 5.51123 67.0761 5.57742 67.2747 5.72303C67.4733 5.86865 67.5792 6.1334 67.5792 6.53053C67.5792 6.66291 67.5394 6.88795 67.4733 7.19242C67.4071 7.52336 67.3541 7.7484 67.3012 7.93373Z"
          fill="#F4F2FD"/>
    <path d="M58.021 23.9511C57.3459 23.9511 56.8032 23.779 56.3796 23.4613C55.7839 23.0112 55.6515 22.5214 55.6515 22.1772V20.6946H57.3592C57.5842 20.6946 57.7695 20.6681 57.9151 20.6284L57.9549 20.6151C58.0475 20.5887 58.1931 20.5357 58.4049 20.3504C58.6035 20.1915 58.8285 19.9135 59.0933 19.5297C59.3051 19.2119 59.5699 18.7883 59.8876 18.1926C59.464 17.5175 59.0006 16.71 58.4976 15.7437C57.9813 14.7773 57.4915 13.7183 56.9885 12.5269C56.4855 11.3487 56.0619 10.1971 55.7177 9.11156C55.347 7.99959 55.0558 6.83467 54.8572 5.66975L54.7249 4.9152H56.7899C57.6504 4.9152 58.0872 5.2991 58.3123 5.63004L58.3255 5.64328C58.5638 6.01394 58.7226 6.38459 58.8153 6.74201V6.75525C58.9477 7.37742 59.1463 8.09226 59.3845 8.86004C59.5963 9.56164 59.8611 10.3162 60.192 11.1766C60.4833 11.9312 60.8142 12.7122 61.1981 13.5065C61.3834 13.9169 61.582 14.3008 61.7806 14.6582C61.9791 14.2743 62.1645 13.8639 62.3498 13.4535C62.7469 12.5666 63.1176 11.64 63.475 10.7001C63.8324 9.7205 64.1501 8.79386 64.4149 7.86722C64.6929 6.90086 64.8782 6.09336 64.9841 5.43147L65.0635 4.87549H66.5197C66.9698 4.87549 67.3536 4.99463 67.6581 5.20643C68.0288 5.48442 68.2273 5.92127 68.2273 6.5302C68.2273 6.70229 68.1876 6.94057 68.1082 7.32447C68.042 7.62894 67.9891 7.89369 67.9229 8.09226C67.6713 9.09833 67.3404 10.1309 66.9433 11.1502C66.5329 12.196 66.149 13.1226 65.7651 13.983L65.646 14.2346C65.3018 14.9891 64.9709 15.704 64.6531 16.3394L64.3884 16.8556C64.1634 17.2925 63.9913 17.6367 63.8721 17.9014C63.3559 18.9472 62.8661 19.8738 62.3895 20.6813C61.9527 21.3962 61.5026 22.0183 61.0525 22.5214C60.6024 23.0112 60.1258 23.3686 59.6228 23.6069L59.6096 23.6201C59.1198 23.8319 58.577 23.9511 58.021 23.9511ZM56.9488 21.9654V22.1772C56.9488 22.2302 57.0017 22.3228 57.1738 22.442C57.3724 22.6008 57.6636 22.667 58.0343 22.667C58.4049 22.667 58.7624 22.5876 59.1065 22.442C59.4507 22.2699 59.8081 22.0051 60.1391 21.6477C60.523 21.2241 60.9201 20.6681 61.3172 20.0195C61.7806 19.2517 62.2571 18.3515 62.7469 17.3587C62.8661 17.0939 63.0514 16.7365 63.2764 16.2864L63.5279 15.7701C63.8324 15.1612 64.1634 14.4464 64.5075 13.7051L64.6267 13.4668C64.9973 12.646 65.3812 11.7326 65.7784 10.7133C66.1622 9.73373 66.4667 8.78062 66.705 7.80103V7.77455C66.7579 7.58923 66.8109 7.33771 66.8638 7.07295C66.9433 6.68906 66.9565 6.56992 66.9565 6.54344C66.9565 6.3184 66.9036 6.25222 66.9036 6.25222C66.8241 6.19926 66.705 6.17279 66.5329 6.17279H66.1755C66.0563 6.78172 65.8975 7.45685 65.6592 8.23787C65.3812 9.19099 65.0635 10.1441 64.6929 11.1502C64.3354 12.1165 63.9515 13.0696 63.5412 13.983C63.1705 14.8038 62.7866 15.5716 62.3895 16.2996L61.86 17.2528L61.2775 16.3394C60.8539 15.6775 60.4435 14.9097 60.0464 14.0757C59.6625 13.255 59.3051 12.4475 59.0139 11.6664C58.6697 10.7795 58.4049 9.99849 58.1799 9.27042C57.9284 8.46291 57.7298 7.73484 57.5842 7.07295C57.5313 6.84791 57.4253 6.62287 57.2665 6.37135C57.24 6.33164 57.1474 6.22574 56.8032 6.22574H56.2869C56.4722 7.07295 56.6973 7.92017 56.962 8.75414C57.293 9.81316 57.7033 10.9251 58.1931 12.0636C58.6829 13.2153 59.1595 14.2346 59.6493 15.1744C60.2185 16.2599 60.7215 17.1204 61.1849 17.8352L61.3834 18.1529L61.2113 18.4839C60.7877 19.3046 60.4436 19.8738 60.1656 20.2842C59.8214 20.774 59.5301 21.1182 59.2389 21.3697C58.908 21.6477 58.6035 21.8198 58.2726 21.8992C58.0078 21.9786 57.7033 22.0183 57.3724 22.0183H56.9488V21.9654Z"
          fill="#F4F2FD"/>
    <path d="M101.07 18.2986C100.66 18.2986 100.316 18.1662 100.051 17.8882C99.7861 17.6102 99.6537 17.2263 99.6537 16.7233V11.137C99.6537 9.81321 99.4155 8.8601 98.9389 8.29087C98.4623 7.72165 97.8005 7.44366 96.9268 7.44366C95.881 7.44366 95.1264 7.72165 94.6631 8.29087C94.1998 8.8601 93.9615 9.78674 93.9615 11.0576V18.2986H93.2334C92.7172 18.2986 92.3465 18.1662 92.1215 17.8882C91.8964 17.6102 91.7905 17.2263 91.7905 16.7233V11.137C91.7905 9.9853 91.5522 9.08514 91.0624 8.42325C90.5727 7.7746 89.8711 7.44366 88.9577 7.44366C88.0045 7.44366 87.3029 7.73489 86.8264 8.31735C86.3498 8.89981 86.1115 9.83969 86.1115 11.137V18.3118H85.4232C84.9599 18.3118 84.6024 18.1795 84.3377 17.9279C84.0729 17.6632 83.9406 17.2661 83.9406 16.7365V10.8722C83.9406 10.1442 84.0597 9.45579 84.2847 8.79391C84.5098 8.13202 84.8407 7.54956 85.2776 7.05976C85.7144 6.55673 86.2572 6.17284 86.8926 5.88161C87.5412 5.59038 88.2693 5.44476 89.09 5.44476C90.0431 5.44476 90.8242 5.64333 91.4728 6.04046C92.1082 6.43759 92.6245 7.00681 93.0216 7.74813C93.432 7.05977 93.988 6.50378 94.6896 6.08017C95.3912 5.65657 96.159 5.458 96.993 5.458C98.5682 5.458 99.7729 5.92132 100.594 6.8612C101.414 7.80108 101.825 9.21751 101.825 11.1105V18.3515H101.07V18.2986Z"
          fill="#F4F2FD"/>
    <path d="M102.433 18.9606H100.461V18.8282C100.13 18.7355 99.8389 18.5635 99.6138 18.3119C99.2432 17.9148 99.0446 17.3853 99.0446 16.7234V11.1371C99.0446 9.97217 98.846 9.12496 98.4754 8.67487C98.118 8.25127 97.6282 8.03946 96.9266 8.03946C96.0661 8.03946 95.4704 8.23803 95.1395 8.66163C94.7688 9.11172 94.5702 9.94569 94.5702 11.0444V18.8944H93.2332C92.5184 18.8944 91.9889 18.6826 91.6447 18.259C91.327 17.8751 91.1814 17.3721 91.1814 16.7102V11.1239C91.1814 10.0913 90.9828 9.32352 90.5725 8.76754C90.2018 8.27774 89.6723 8.03946 88.9575 8.03946C88.2029 8.03946 87.6602 8.25127 87.2895 8.68811C86.9056 9.15143 86.707 9.97217 86.707 11.1239V18.9076H85.423C84.814 18.9076 84.311 18.7223 83.9139 18.3516L83.9006 18.3384C83.5167 17.9545 83.3314 17.4118 83.3314 16.7234V10.8591C83.3314 10.0913 83.4638 9.32352 83.7021 8.58221C83.9536 7.84089 84.3243 7.17901 84.814 6.63626C85.2906 6.09352 85.8995 5.64343 86.6276 5.31249C87.3557 4.98155 88.1764 4.82269 89.0766 4.82269C90.1356 4.82269 91.0225 5.04774 91.7771 5.51106C92.2536 5.81552 92.6773 6.19942 93.0347 6.66274C93.4053 6.22589 93.8554 5.85524 94.3584 5.55077C95.1395 5.07421 96.0132 4.83593 96.9795 4.83593C98.7401 4.83593 100.104 5.37868 101.03 6.45094C101.944 7.49672 102.407 9.05876 102.407 11.0974V18.9606H102.433ZM84.7611 17.5044C84.9199 17.6501 85.1318 17.7162 85.423 17.7162H85.5024V11.1503C85.5024 9.69418 85.7804 8.6484 86.3496 7.9468C86.9453 7.21872 87.819 6.84807 88.9442 6.84807C90.0562 6.84807 90.9166 7.25843 91.5388 8.06594C92.108 8.84696 92.386 9.83979 92.386 11.1503V16.7367C92.386 17.0941 92.4522 17.3588 92.5846 17.5177C92.7037 17.6765 92.995 17.703 93.22 17.703H93.3391V11.0709C93.3391 9.6677 93.6171 8.60868 94.1731 7.92032C94.7556 7.20548 95.669 6.84807 96.9133 6.84807C97.9591 6.84807 98.7931 7.20549 99.3888 7.90709C99.9712 8.59545 100.249 9.65447 100.249 11.1371V16.7234C100.249 17.0676 100.329 17.3059 100.474 17.4647C100.567 17.5574 100.726 17.6898 101.057 17.6898H101.202V11.1106C101.202 9.37647 100.845 8.07917 100.117 7.25843C99.4153 6.45093 98.3827 6.06704 96.9663 6.06704C96.225 6.06704 95.5763 6.23913 94.9806 6.59655C94.3717 6.9672 93.8819 7.457 93.5245 8.0527L92.9817 8.97934L92.4787 8.03946C92.1345 7.39081 91.6844 6.90102 91.1417 6.55684C90.5857 6.21266 89.9106 6.0538 89.0766 6.0538C88.3353 6.0538 87.6999 6.17294 87.1307 6.4377C86.5482 6.70245 86.0981 7.03339 85.7274 7.457C85.3436 7.88061 85.0523 8.39688 84.8538 8.99258C84.642 9.61475 84.5361 10.2237 84.5361 10.8723V16.7367C84.5493 17.0941 84.6287 17.3588 84.7611 17.5044Z"
          fill="#F4F2FD"/>
    <path d="M116.214 9.42938C116.214 6.6627 113.951 4.86237 110.655 4.86237C107.517 4.86237 104.234 7.11278 104.234 12.1431C104.234 15.9821 106.551 18.8149 110.562 18.8149C112.826 18.8149 115.301 17.5309 115.923 16.6439C115.923 16.6439 115.5 14.9892 114.321 14.9892C113.699 14.9892 113.249 15.2275 112.746 15.4393C112.217 15.6511 111.594 15.8497 110.787 15.8497C109.662 15.8497 107.742 15.3996 107.742 12.9903C107.742 12.9903 108.642 13.2551 110.708 13.2551C115.155 13.2551 116.214 11.3753 116.214 9.42938ZM110.787 7.85409C112.309 7.85409 113.037 8.68807 113.037 9.44262C113.037 10.3428 112.23 10.912 110.774 10.912C108.656 10.912 107.848 10.6208 107.848 10.6075C107.861 9.32348 108.867 7.85409 110.787 7.85409Z"
          fill="#F4F2FD"/>
    <path d="M121.522 3.07207V10.9461C122.795 9.28644 124.042 7.60182 125.552 6.15429C126.339 5.41805 127.125 5.29327 128.173 5.29327H130.057V5.41805C129.121 6.20421 126.064 9.67327 124.704 11.4078C125.752 12.7056 126.788 14.0533 127.961 15.2512C129.159 16.4492 129.695 16.6988 130.506 16.9608C130.169 18.009 129.62 18.5705 128.285 18.5705C127.549 18.5705 126.7 18.2336 126.126 17.6596C124.442 15.9251 122.969 13.9659 121.522 12.0317V18.4707L120.474 18.4957C118.951 18.5206 118.227 17.7095 118.227 16.1746V0.888306H119.276C120.86 0.888306 121.522 1.79925 121.522 3.07207Z"
          fill="#F4F2FD"/>
</svg>