<svg width="210" height="64" viewBox="0 0 210 64" fill="none" xmlns="http://www.w3.org/2000/svg">
    <g clip-path="url(#clip0)">
        <path d="M69.3916 24.6615C69.3916 17.3728 63.4009 12.5803 54.6812 12.5803C46.3942 12.5803 37.7077 18.5377 37.7077 31.8169C37.7077 41.9678 43.8315 49.4561 54.4482 49.4561C60.4056 49.4561 66.962 46.0614 68.6261 43.7317C68.6261 43.7317 67.4945 39.3718 64.3994 39.3718C62.7686 39.3718 61.5704 40.0042 60.2392 40.5699C58.8414 41.1357 57.2106 41.6349 55.0806 41.6349C52.1185 41.6349 47.0265 40.4368 47.0265 34.0801C47.0265 34.0801 49.4228 34.779 54.8809 34.779C66.5626 34.7457 69.3916 29.8201 69.3916 24.6615ZM55.0473 20.5013C59.0743 20.5013 61.0047 22.6979 61.0047 24.6947C61.0047 27.0577 58.8747 28.5887 55.014 28.5887C49.4228 28.5887 47.2928 27.7899 47.2928 27.7899C47.2928 24.3952 49.9553 20.5013 55.0473 20.5013Z"
              fill="#FFD300"/>
        <path d="M91.1908 41.6682C87.1638 41.6682 85.0671 38.2735 84.701 36.8091C84.3016 35.3448 84.0354 33.2813 84.0354 31.1513L84.1019 20.235H87.0307C89.3936 20.235 91.2241 19.5361 92.4888 18.1716C93.7868 16.7738 94.4191 14.9433 94.4191 12.6136H84.1019L84.0354 7.75453C84.0354 6.22359 84.0354 4.9589 84.0686 4.02702C84.1019 3.06187 84.1352 2.32968 84.1685 1.76389C84.2018 1.16483 84.2683 0.665609 84.3349 0.299515C81.2064 0.299515 78.8102 0.965141 77.1794 2.29639C75.5486 3.62765 74.7166 5.82422 74.7166 8.91938L74.65 33.1482C74.65 43.066 79.376 49.5559 88.3952 49.5559C92.8549 49.5559 96.1165 47.1596 96.1165 43.532C96.1165 42.234 95.9501 41.5684 95.8169 41.169C95.0515 41.3354 93.5871 41.6682 91.1908 41.6682Z"
              fill="#FFD300"/>
        <path d="M113.822 42.1341C111.825 42.1341 110.527 40.6698 110.527 38.3068V20.8341C110.527 19.3032 110.527 18.0385 110.561 17.1066C110.594 16.1414 110.627 15.4092 110.66 14.8435C110.727 14.2444 110.76 13.7452 110.827 13.3791C107.632 13.3791 105.236 14.0447 103.605 15.376C101.974 16.7072 101.142 18.9038 101.142 21.9989L101.075 39.8045C101.075 46.1612 105.169 49.689 110.328 49.4893C113.589 49.3562 116.385 47.8253 116.385 44.3973C116.385 42.9662 116.152 41.8346 116.152 41.8346C115.386 42.001 114.854 42.1341 113.822 42.1341Z"
              fill="#FFD300"/>
        <path d="M103.438 9.88455C104.171 10.2506 104.969 10.4503 105.801 10.4503C107.732 10.4503 109.263 9.51846 110.394 7.68799C110.86 6.85595 111.093 5.95736 111.093 4.9922C111.093 4.0936 110.893 3.26157 110.461 2.46282C110.028 1.66407 109.396 1.065 108.564 0.632345C107.832 0.199688 107.066 0 106.267 0C105.369 0 104.503 0.266251 103.671 0.765471C102.839 1.26469 102.174 1.9636 101.708 2.86219C101.242 3.66095 101.009 4.55954 101.009 5.55798C101.009 6.45658 101.209 7.28861 101.641 8.05408C102.041 8.78627 102.64 9.41862 103.438 9.88455Z"
              fill="#FFD300"/>
        <path d="M136.953 13.4457C134.989 13.4457 133.025 13.6786 131.062 14.1113C129.098 14.544 127.301 15.376 125.704 16.6074C124.106 17.8388 122.808 19.5362 121.81 21.7327C120.811 23.9293 120.312 26.7249 120.312 30.1529V40.1706C120.312 43.2658 120.711 46.1279 122.575 47.5258C124.605 49.0567 126.968 49.1233 130.097 49.1233C130.03 48.8237 129.997 47.9251 129.93 47.3261C129.864 46.7603 129.83 45.9948 129.83 45.0629C129.797 44.0978 129.797 42.8664 129.797 41.3354V28.4888C129.797 25.4602 130.296 21.5663 135.621 21.1337C138.617 20.8674 141.279 19.7359 141.279 16.4743C141.279 15.7088 141.113 14.2777 140.747 13.4457H136.953Z"
              fill="#FFD300"/>
        <path d="M16.6407 12.5803C5.72439 12.5803 0 20.235 0 29.5538C0 38.1737 5.25845 46.2278 14.8102 46.2278C19.7691 46.2278 22.6313 44.131 23.3635 43.4987V47.8253C23.3635 52.7842 21.4332 56.079 16.441 56.079C14.0447 56.079 12.2475 55.4134 10.5835 54.6479C9.11908 53.949 8.0208 53.117 6.55642 53.117C2.82891 53.117 1.79719 57.7098 1.83047 57.7431C4.6261 61.3375 11.0161 64 16.3744 64C26.9246 64 32.7488 57.8429 32.7488 45.6287C32.7488 45.6287 32.7488 33.3146 32.7488 31.351C32.7155 20.2018 27.7899 12.5803 16.6407 12.5803ZM16.5741 37.974C12.4805 37.974 9.35205 35.378 9.35205 29.6869C9.35205 23.6297 12.5471 20.468 16.5741 20.468C20.5346 20.468 23.4301 22.8643 23.4301 29.221C23.4301 35.7441 20.3016 37.974 16.5741 37.974Z"
              fill="#FFD300"/>
        <path d="M178.588 32.8487V19.636C178.588 15.5091 180.751 13.3791 185.843 13.3791H187.407V33.1482C187.407 39.1388 189.937 41.6349 193.531 41.6349C197.525 41.6349 200.653 39.039 200.653 32.5491V19.636C200.653 15.5091 202.883 13.3791 207.908 13.3791H209.539V33.4144C209.539 43.6651 202.683 49.3895 193.997 49.3895C183.746 49.4228 178.588 43.7982 178.588 32.8487Z"
              fill="white"/>
        <path d="M158.719 49.6891C152.195 49.6891 147.336 46.3277 147.336 42.7V38.6729H147.669C149.566 40.4369 154.126 42.0344 158.319 42.0344C162.679 42.0344 164.776 40.7697 164.776 38.1404C164.776 36.1103 163.511 35.1118 157.387 34.2465C149.899 33.1815 146.271 30.2195 146.271 24.8279C146.271 18.1717 152.262 12.5138 161.348 12.5138C169.369 12.5138 172.664 16.674 172.664 20.0687V23.4301H172.331C170.5 21.5996 166.407 20.1352 162.18 20.1352C156.788 20.1352 155.058 21.766 155.058 24.0957C155.058 25.8596 156.123 26.5918 162.18 27.5903C169.568 28.7884 173.496 32.0167 173.496 37.6745C173.529 45.2294 168.27 49.6891 158.719 49.6891Z"
              fill="white"/>
    </g>
    <defs>
        <clipPath id="clip0">
            <rect width="209.539" height="64" fill="white"/>
        </clipPath>
    </defs>
</svg>
